<?xml version="1.0" encoding="UTF-8" standalone="no"?>
<!DOCTYPE svg PUBLIC "-//W3C//DTD SVG 1.1//EN" "http://www.w3.org/Graphics/SVG/1.1/DTD/svg11.dtd">
<svg width="100%" height="100%" viewBox="0 0 834 850" version="1.1" xmlns="http://www.w3.org/2000/svg" xmlns:xlink="http://www.w3.org/1999/xlink" xml:space="preserve" xmlns:serif="http://www.serif.com/" style="fill-rule:evenodd;clip-rule:evenodd;stroke-linejoin:round;stroke-miterlimit:2;">
    <g id="Layer_2">
        <g id="Object">
            <path d="M427,542.51C358.9,542.51 303.49,487.23 303.49,419.28C303.49,351.33 358.91,296.05 427,296.05C495.09,296.05 550.52,351.33 550.52,419.28C550.52,487.23 495.12,542.51 427,542.51ZM427,297.85C359.89,297.85 305.28,352.32 305.28,419.28C305.28,486.24 359.9,540.72 427,540.72C494.1,540.72 548.72,486.24 548.72,419.28C548.72,352.32 494.13,297.85 427,297.85Z" style="fill:rgb(20,41,76);fill-rule:nonzero;"/>
            <path d="M427,563.48C347.3,563.48 282.46,498.79 282.46,419.28C282.46,339.77 347.31,275.08 427,275.08C506.69,275.08 571.54,339.77 571.54,419.28C571.54,498.79 506.71,563.48 427,563.48ZM427,283.48C352,283.48 290.91,344.39 290.91,419.25C290.91,494.11 352,555.05 427,555.05C502,555.05 563.1,494.15 563.1,419.28C563.1,344.41 502.05,283.51 427,283.51L427,283.48Z" style="fill:rgb(20,41,76);fill-rule:nonzero;"/>
            <path d="M427,757.8C243.99,757.486 93.573,606.811 93.573,423.8C93.573,240.574 244.346,89.8 427.573,89.8C516.118,89.8 601.127,125.011 663.74,187.62C726.357,250.234 761.573,335.249 761.573,423.8C761.573,607.027 610.8,757.8 427.573,757.8C427.382,757.8 427.191,757.8 427,757.8ZM427,95.8C247.005,96.031 99.022,244.204 99.022,424.2C99.022,604.355 247.267,752.6 427.422,752.6C607.577,752.6 755.822,604.355 755.822,424.2C755.822,337.07 721.146,253.424 659.5,191.85C597.936,130.128 514.176,95.518 427,95.78L427,95.8Z" style="fill:rgb(20,41,76);fill-rule:nonzero;"/>
            <rect x="424.45" y="53.19" width="5.13" height="39.6" style="fill:rgb(20,41,76);"/>
            <rect x="424.45" y="754.8" width="5.13" height="39.6" style="fill:rgb(20,41,76);"/>
            <g transform="matrix(0.984747,-0.173992,0.173992,0.984747,-9.36,65.25)">
                <rect x="365.31" y="73.97" width="4" height="24.03" style="fill:rgb(20,41,76);"/>
            </g>
            <g transform="matrix(0.984747,-0.173992,0.173992,0.984747,-125.1,96.31)">
                <rect x="484.72" y="749.59" width="4" height="24.03" style="fill:rgb(20,41,76);"/>
            </g>
            <path d="M311.66,113.43L303.42,90.86L307.18,89.49L315.42,112.07L311.66,113.43Z" style="fill:rgb(20,41,76);fill-rule:nonzero;"/>
            <path d="M546.85,758.1L538.61,735.53L542.37,734.16L550.61,756.74L546.85,758.1Z" style="fill:rgb(20,41,76);fill-rule:nonzero;"/>
            <path d="M259.39,138.13L247.35,117.33L250.81,115.33L262.85,136.14L259.39,138.13Z" style="fill:rgb(20,41,76);fill-rule:nonzero;"/>
            <path d="M603.22,732.26L591.18,711.46L594.64,709.46L606.68,730.27L603.22,732.26Z" style="fill:rgb(20,41,76);fill-rule:nonzero;"/>
            <path d="M212.22,171.51L196.74,153.11L199.8,150.54L215.28,168.95L212.22,171.51Z" style="fill:rgb(20,41,76);fill-rule:nonzero;"/>
            <path d="M654.23,697.05L638.75,678.65L641.82,676.08L657.29,694.49L654.23,697.05Z" style="fill:rgb(20,41,76);fill-rule:nonzero;"/>
            <path d="M171.57,212.56L153.12,197.12L155.69,194.06L174.14,209.5L171.57,212.56Z" style="fill:rgb(20,41,76);fill-rule:nonzero;"/>
            <path d="M698.34,653.54L679.89,638.09L682.46,635.04L700.91,650.48L698.34,653.54Z" style="fill:rgb(20,41,76);fill-rule:nonzero;"/>
            <path d="M138.68,260.02L117.82,248.01L119.82,244.55L140.68,256.56L138.68,260.02Z" style="fill:rgb(20,41,76);fill-rule:nonzero;"/>
            <path d="M734.21,603.04L713.35,591.03L715.35,587.57L736.21,599.59L734.21,603.04Z" style="fill:rgb(20,41,76);fill-rule:nonzero;"/>
            <path d="M114.56,312.46L91.92,304.24L93.29,300.49L115.92,308.71L114.56,312.46Z" style="fill:rgb(20,41,76);fill-rule:nonzero;"/>
            <path d="M760.74,547.1L738.11,538.88L739.48,535.13L762.11,543.35L760.74,547.1Z" style="fill:rgb(20,41,76);fill-rule:nonzero;"/>
            <g transform="matrix(0.173133,-0.984899,0.984899,0.173133,-285.62,388.26)">
                <rect x="86.42" y="352.19" width="3.99" height="24.08" style="fill:rgb(20,41,76);"/>
            </g>
            <g transform="matrix(0.173133,-0.984899,0.984899,0.173133,156.95,1153.68)">
                <rect x="763.63" y="471.32" width="3.99" height="24.08" style="fill:rgb(20,41,76);"/>
            </g>
            <rect x="55.54" y="421.23" width="39.69" height="5.12" style="fill:rgb(20,41,76);"/>
            <rect x="758.81" y="421.23" width="39.69" height="5.12" style="fill:rgb(20,41,76);"/>
            <g transform="matrix(0.984747,-0.173992,0.173992,0.984747,-82.74,22.75)">
                <rect x="76.37" y="481.36" width="24.08" height="3.99" style="fill:rgb(20,41,76);"/>
            </g>
            <g transform="matrix(0.984747,-0.173992,0.173992,0.984747,-51.69,138.74)">
                <rect x="753.58" y="362.23" width="24.08" height="3.99" style="fill:rgb(20,41,76);"/>
            </g>
            <path d="M93.3,547.1L91.93,543.35L114.56,535.13L115.92,538.88L93.3,547.1Z" style="fill:rgb(20,41,76);fill-rule:nonzero;"/>
            <path d="M739.48,312.46L738.11,308.71L760.74,300.49L762.11,304.24L739.48,312.46Z" style="fill:rgb(20,41,76);fill-rule:nonzero;"/>
            <path d="M119.83,603.04L117.83,599.58L138.68,587.57L140.68,591.03L119.83,603.04Z" style="fill:rgb(20,41,76);fill-rule:nonzero;"/>
            <path d="M715.35,260.02L713.35,256.56L734.21,244.55L736.21,248L715.35,260.02Z" style="fill:rgb(20,41,76);fill-rule:nonzero;"/>
            <path d="M155.69,653.53L153.12,650.48L171.57,635.03L174.14,638.09L155.69,653.53Z" style="fill:rgb(20,41,76);fill-rule:nonzero;"/>
            <path d="M682.47,212.55L679.89,209.5L698.34,194.05L700.91,197.11L682.47,212.55Z" style="fill:rgb(20,41,76);fill-rule:nonzero;"/>
            <path d="M199.8,697.05L196.74,694.48L212.22,676.08L215.28,678.64L199.8,697.05Z" style="fill:rgb(20,41,76);fill-rule:nonzero;"/>
            <path d="M641.82,171.51L638.75,168.94L654.23,150.54L657.3,153.1L641.82,171.51Z" style="fill:rgb(20,41,76);fill-rule:nonzero;"/>
            <path d="M250.82,732.26L247.35,730.26L259.39,709.45L262.86,711.45L250.82,732.26Z" style="fill:rgb(20,41,76);fill-rule:nonzero;"/>
            <path d="M594.64,138.13L591.18,136.13L603.22,115.33L606.68,117.32L594.64,138.13Z" style="fill:rgb(20,41,76);fill-rule:nonzero;"/>
            <path d="M307.18,758.1L303.42,756.73L311.66,734.15L315.42,735.52L307.18,758.1Z" style="fill:rgb(20,41,76);fill-rule:nonzero;"/>
            <path d="M542.37,113.43L538.62,112.06L546.85,89.49L550.61,90.85L542.37,113.43Z" style="fill:rgb(20,41,76);fill-rule:nonzero;"/>
            <g transform="matrix(0.173133,-0.984899,0.984899,0.173133,-446.39,991.47)">
                <rect x="355.3" y="759.6" width="24.03" height="4" style="fill:rgb(20,41,76);"/>
            </g>
            <g transform="matrix(0.173133,-0.984899,0.984899,0.173133,317.75,550.46)">
                <rect x="474.71" y="83.98" width="24.03" height="4" style="fill:rgb(20,41,76);"/>
            </g>
            <g transform="matrix(1,-0.03,0.03,1,-2.71,14.53)">
                <rect x="414.3" y="79.04" width="1.71" height="11.87" style="fill:rgb(20,41,76);"/>
            </g>
            <g transform="matrix(0.999385,-0.0350739,0.0350739,0.999385,-26.42,15.83)">
                <rect x="438.02" y="756.68" width="1.71" height="11.87" style="fill:rgb(20,41,76);"/>
            </g>
            <g transform="matrix(1,-0.07,0.07,1,-4.99,28.37)">
                <rect x="402.45" y="79.66" width="1.71" height="11.87" style="fill:rgb(20,41,76);"/>
            </g>
            <g transform="matrix(0.997552,-0.0699306,0.0699306,0.997552,-52.14,33.36)">
                <rect x="449.86" y="756.06" width="1.71" height="11.87" style="fill:rgb(20,41,76);"/>
            </g>
            <g transform="matrix(0.994504,-0.104702,0.104702,0.994504,-6.92,41.44)">
                <rect x="390.63" y="80.69" width="1.71" height="11.87" style="fill:rgb(20,41,76);"/>
            </g>
            <g transform="matrix(0.994504,-0.104702,0.104702,0.994504,-77.16,52.63)">
                <rect x="461.68" y="755.03" width="1.71" height="11.87" style="fill:rgb(20,41,76);"/>
            </g>
            <g transform="matrix(0.990244,-0.139346,0.139346,0.990244,-8.57,53.78)">
                <rect x="378.86" y="82.13" width="1.71" height="11.87" style="fill:rgb(20,41,76);"/>
            </g>
            <g transform="matrix(0.990219,-0.139519,0.139519,0.990219,-101.32,73.6)">
                <rect x="473.45" y="753.59" width="1.71" height="11.88" style="fill:rgb(20,41,76);"/>
            </g>
            <path d="M356.76,98.16L354.29,86.54L355.96,86.19L358.43,97.8L356.76,98.16Z" style="fill:rgb(20,41,76);fill-rule:nonzero;"/>
            <g transform="matrix(0.978039,-0.208424,0.208424,0.978039,-146.51,120.3)">
                <rect x="496.81" y="749.48" width="1.71" height="11.87" style="fill:rgb(20,41,76);"/>
            </g>
            <path d="M345.41,100.8L342.53,89.28L344.19,88.87L347.07,100.39L345.41,100.8Z" style="fill:rgb(20,41,76);fill-rule:nonzero;"/>
            <path d="M509.83,758.72L506.95,747.2L508.62,746.79L511.5,758.31L509.83,758.72Z" style="fill:rgb(20,41,76);fill-rule:nonzero;"/>
            <path d="M334.16,103.84L330.88,92.43L332.53,91.96L335.81,103.37L334.16,103.84Z" style="fill:rgb(20,41,76);fill-rule:nonzero;"/>
            <path d="M521.5,755.64L518.22,744.22L519.86,743.75L523.15,755.17L521.5,755.64Z" style="fill:rgb(20,41,76);fill-rule:nonzero;"/>
            <path d="M323.02,107.27L319.35,95.98L320.98,95.45L324.65,106.74L323.02,107.27Z" style="fill:rgb(20,41,76);fill-rule:nonzero;"/>
            <path d="M533.05,752.14L529.37,740.85L531,740.32L534.68,751.62L533.05,752.14Z" style="fill:rgb(20,41,76);fill-rule:nonzero;"/>
            <path d="M301.15,115.28L296.69,104.27L298.28,103.63L302.73,114.64L301.15,115.28Z" style="fill:rgb(20,41,76);fill-rule:nonzero;"/>
            <path d="M555.75,743.97L551.29,732.96L552.88,732.32L557.34,743.33L555.75,743.97Z" style="fill:rgb(20,41,76);fill-rule:nonzero;"/>
            <path d="M290.43,119.85L285.59,109L287.16,108.31L292,119.15L290.43,119.85Z" style="fill:rgb(20,41,76);fill-rule:nonzero;"/>
            <path d="M566.87,739.29L562.03,728.44L563.6,727.75L568.44,738.59L566.87,739.29Z" style="fill:rgb(20,41,76);fill-rule:nonzero;"/>
            <path d="M279.88,124.79L274.67,114.12L276.2,113.37L281.42,124.04L279.88,124.79Z" style="fill:rgb(20,41,76);fill-rule:nonzero;"/>
            <path d="M577.83,734.23L572.61,723.55L574.14,722.8L579.36,733.48L577.83,734.23Z" style="fill:rgb(20,41,76);fill-rule:nonzero;"/>
            <path d="M269.51,130.09L263.93,119.61L265.44,118.81L271.02,129.29L269.51,130.09Z" style="fill:rgb(20,41,76);fill-rule:nonzero;"/>
            <path d="M588.59,728.78L583,718.3L584.52,717.5L590.1,727.98L588.59,728.78Z" style="fill:rgb(20,41,76);fill-rule:nonzero;"/>
            <path d="M249.36,141.77L243.05,131.7L244.5,130.79L250.81,140.86L249.36,141.77Z" style="fill:rgb(20,41,76);fill-rule:nonzero;"/>
            <path d="M609.52,716.8L603.22,706.73L604.67,705.82L610.98,715.89L609.52,716.8Z" style="fill:rgb(20,41,76);fill-rule:nonzero;"/>
            <path d="M239.6,148.13L232.95,138.28L234.37,137.33L241.02,147.17L239.6,148.13Z" style="fill:rgb(20,41,76);fill-rule:nonzero;"/>
            <path d="M619.66,710.26L613.01,700.42L614.43,699.47L621.08,709.31L619.66,710.26Z" style="fill:rgb(20,41,76);fill-rule:nonzero;"/>
            <path d="M230.07,154.82L223.08,145.22L224.46,144.21L231.46,153.82L230.07,154.82Z" style="fill:rgb(20,41,76);fill-rule:nonzero;"/>
            <path d="M629.57,703.38L622.57,693.78L623.95,692.77L630.95,702.38L629.57,703.38Z" style="fill:rgb(20,41,76);fill-rule:nonzero;"/>
            <path d="M220.78,161.84L213.46,152.49L214.81,151.44L222.13,160.79L220.78,161.84Z" style="fill:rgb(20,41,76);fill-rule:nonzero;"/>
            <path d="M639.22,696.16L631.9,686.8L633.25,685.75L640.57,695.11L639.22,696.16Z" style="fill:rgb(20,41,76);fill-rule:nonzero;"/>
            <path d="M202.97,176.83L195.01,168.01L196.28,166.86L204.24,175.69L202.97,176.83Z" style="fill:rgb(20,41,76);fill-rule:nonzero;"/>
            <path d="M657.75,680.73L649.79,671.9L651.06,670.76L659.02,679.59L657.75,680.73Z" style="fill:rgb(20,41,76);fill-rule:nonzero;"/>
            <path d="M194.47,184.78L186.2,176.24L187.43,175.06L195.7,183.6L194.47,184.78Z" style="fill:rgb(20,41,76);fill-rule:nonzero;"/>
            <path d="M666.6,672.54L658.33,664L659.56,662.81L667.83,671.35L666.6,672.54Z" style="fill:rgb(20,41,76);fill-rule:nonzero;"/>
            <path d="M186.25,193.03L177.69,184.78L178.88,183.55L187.44,191.8L186.25,193.03Z" style="fill:rgb(20,41,76);fill-rule:nonzero;"/>
            <path d="M675.15,664.05L666.59,655.8L667.78,654.57L676.34,662.82L675.15,664.05Z" style="fill:rgb(20,41,76);fill-rule:nonzero;"/>
            <path d="M178.32,201.55L169.48,193.6L170.63,192.34L179.47,200.28L178.32,201.55Z" style="fill:rgb(20,41,76);fill-rule:nonzero;"/>
            <path d="M683.4,655.26L674.56,647.32L675.71,646.04L684.55,653.99L683.4,655.26Z" style="fill:rgb(20,41,76);fill-rule:nonzero;"/>
            <path d="M163.39,219.4L154.01,212.09L155.06,210.74L164.44,218.05L163.39,219.4Z" style="fill:rgb(20,41,76);fill-rule:nonzero;"/>
            <path d="M698.97,636.85L689.59,629.54L690.64,628.2L700.02,635.51L698.97,636.85Z" style="fill:rgb(20,41,76);fill-rule:nonzero;"/>
            <path d="M156.4,228.7L146.77,221.72L147.78,220.34L157.4,227.32L156.4,228.7Z" style="fill:rgb(20,41,76);fill-rule:nonzero;"/>
            <path d="M706.25,627.25L696.63,620.27L697.63,618.89L707.26,625.87L706.25,627.25Z" style="fill:rgb(20,41,76);fill-rule:nonzero;"/>
            <path d="M149.74,238.24L139.87,231.6L140.83,230.19L150.69,236.83L149.74,238.24Z" style="fill:rgb(20,41,76);fill-rule:nonzero;"/>
            <path d="M713.2,617.41L703.33,610.77L704.29,609.35L714.16,615.99L713.2,617.41Z" style="fill:rgb(20,41,76);fill-rule:nonzero;"/>
            <path d="M143.41,248.01L133.33,241.72L134.23,240.27L144.32,246.56L143.41,248.01Z" style="fill:rgb(20,41,76);fill-rule:nonzero;"/>
            <path d="M719.8,607.33L709.71,601.03L710.62,599.59L720.71,605.88L719.8,607.33Z" style="fill:rgb(20,41,76);fill-rule:nonzero;"/>
            <path d="M131.82,268.17L121.31,262.6L122.11,261.09L132.62,266.66L131.82,268.17Z" style="fill:rgb(20,41,76);fill-rule:nonzero;"/>
            <path d="M731.92,586.5L721.41,580.93L722.22,579.42L732.72,584.99L731.92,586.5Z" style="fill:rgb(20,41,76);fill-rule:nonzero;"/>
            <path d="M126.55,278.55L115.86,273.34L116.61,271.81L127.3,277.01L126.55,278.55Z" style="fill:rgb(20,41,76);fill-rule:nonzero;"/>
            <path d="M737.43,575.79L726.73,570.58L727.48,569.05L738.18,574.25L737.43,575.79Z" style="fill:rgb(20,41,76);fill-rule:nonzero;"/>
            <path d="M121.65,289.1L110.78,284.26L111.48,282.7L122.35,287.54L121.65,289.1Z" style="fill:rgb(20,41,76);fill-rule:nonzero;"/>
            <path d="M742.55,564.89L731.68,560.06L732.38,558.5L743.25,563.33L742.55,564.89Z" style="fill:rgb(20,41,76);fill-rule:nonzero;"/>
            <path d="M117.13,299.81L106.1,295.36L106.74,293.78L117.77,298.23L117.13,299.81Z" style="fill:rgb(20,41,76);fill-rule:nonzero;"/>
            <path d="M747.29,553.82L736.26,549.37L736.9,547.78L747.94,552.23L747.29,553.82Z" style="fill:rgb(20,41,76);fill-rule:nonzero;"/>
            <path d="M109.21,321.68L97.9,318.01L98.43,316.38L109.74,320.05L109.21,321.68Z" style="fill:rgb(20,41,76);fill-rule:nonzero;"/>
            <path d="M755.61,531.21L744.29,527.54L744.82,525.92L756.14,529.58L755.61,531.21Z" style="fill:rgb(20,41,76);fill-rule:nonzero;"/>
            <path d="M105.83,332.8L94.4,329.53L94.87,327.89L106.31,331.16L105.83,332.8Z" style="fill:rgb(20,41,76);fill-rule:nonzero;"/>
            <g transform="matrix(0.275134,-0.961406,0.961406,0.275134,49,1099.48)">
                <rect x="752.83" y="511.29" width="1.71" height="11.9" style="fill:rgb(20,41,76);"/>
            </g>
            <g transform="matrix(0.241414,-0.970422,0.970422,0.241414,-257.87,353.65)">
                <rect x="96.43" y="335.83" width="1.71" height="11.9" style="fill:rgb(20,41,76);"/>
            </g>
            <path d="M762.32,508.08L750.77,505.21L751.18,503.55L762.73,506.42L762.32,508.08Z" style="fill:rgb(20,41,76);fill-rule:nonzero;"/>
            <g transform="matrix(0.207741,-0.978184,0.978184,0.207741,-270.64,372.47)">
                <rect x="93.76" y="347.36" width="1.71" height="11.9" style="fill:rgb(20,41,76);"/>
            </g>
            <path d="M765.06,496.35L753.42,493.88L753.77,492.21L765.42,494.68L765.06,496.35Z" style="fill:rgb(20,41,76);fill-rule:nonzero;"/>
            <g transform="matrix(0.138827,-0.990317,0.990317,0.138827,-295.04,413.92)">
                <rect x="89.64" y="370.66" width="1.71" height="11.9" style="fill:rgb(20,41,76);"/>
            </g>
            <g transform="matrix(0.14,-0.99,0.99,0.14,191.07,1161.7)">
                <rect x="762.69" y="465.03" width="1.71" height="11.9" style="fill:rgb(20,41,76);"/>
            </g>
            <g transform="matrix(0.104528,-0.994522,0.994522,0.104528,-306.49,436.33)">
                <rect x="88.2" y="382.41" width="1.71" height="11.9" style="fill:rgb(20,41,76);"/>
            </g>
            <g transform="matrix(0.104528,-0.994522,0.994522,0.104528,228.31,1172.03)">
                <rect x="764.13" y="453.28" width="1.71" height="11.9" style="fill:rgb(20,41,76);"/>
            </g>
            <g transform="matrix(0.07,-1,1,0.07,-317.29,460.07)">
                <rect x="87.16" y="394.2" width="1.71" height="11.9" style="fill:rgb(20,41,76);"/>
            </g>
            <g transform="matrix(0.0694083,-0.997588,0.997588,0.0694083,266.44,1180.53)">
                <rect x="765.16" y="441.49" width="1.71" height="11.9" style="fill:rgb(20,41,76);"/>
            </g>
            <g transform="matrix(0.0350739,-0.999385,0.999385,0.0350739,-327.38,484.87)">
                <rect x="86.54" y="406.01" width="1.71" height="11.9" style="fill:rgb(20,41,76);"/>
            </g>
            <g transform="matrix(0.0348995,-0.999391,0.999391,0.0348995,304.57,1186.63)">
                <rect x="765.78" y="429.68" width="1.71" height="11.9" style="fill:rgb(20,41,76);"/>
            </g>
            <g transform="matrix(1,-0.03,0.03,1,-15.15,3.32)">
                <rect x="81.45" y="434.77" width="11.9" height="1.71" style="fill:rgb(20,41,76);"/>
            </g>
            <g transform="matrix(0.999391,-0.0348995,0.0348995,0.999391,-13.91,27)">
                <rect x="760.69" y="411.11" width="11.9" height="1.71" style="fill:rgb(20,41,76);"/>
            </g>
            <g transform="matrix(0.997564,-0.0697565,0.0697565,0.997564,-30.98,7.23)">
                <rect x="82.07" y="446.59" width="11.9" height="1.71" style="fill:rgb(20,41,76);"/>
            </g>
            <g transform="matrix(0.997564,-0.0697565,0.0697565,0.997564,-26.04,54.38)">
                <rect x="760.07" y="399.29" width="11.9" height="1.71" style="fill:rgb(20,41,76);"/>
            </g>
            <g transform="matrix(0.994504,-0.104702,0.104702,0.994504,-47.57,11.84)">
                <rect x="83.1" y="458.38" width="11.9" height="1.71" style="fill:rgb(20,41,76);"/>
            </g>
            <g transform="matrix(0.994449,-0.105223,0.105223,0.994449,-36.6,82.61)">
                <rect x="759.03" y="387.5" width="11.9" height="1.71" style="fill:rgb(20,41,76);"/>
            </g>
            <g transform="matrix(0.990219,-0.139519,0.139519,0.990219,-64.83,17.23)">
                <rect x="84.55" y="470.13" width="11.9" height="1.71" style="fill:rgb(20,41,76);"/>
            </g>
            <g transform="matrix(0.990219,-0.139519,0.139519,0.990219,-45.08,110.21)">
                <rect x="757.59" y="375.76" width="11.9" height="1.71" style="fill:rgb(20,41,76);"/>
            </g>
            <path d="M88.97,496.35L88.62,494.68L100.26,492.21L100.61,493.88L88.97,496.35Z" style="fill:rgb(20,41,76);fill-rule:nonzero;"/>
            <path d="M753.78,355.38L753.42,353.7L765.06,351.24L765.42,352.91L753.78,355.38Z" style="fill:rgb(20,41,76);fill-rule:nonzero;"/>
            <g transform="matrix(0.970169,-0.24243,0.24243,0.970169,-119.72,38.67)">
                <rect x="91.33" y="504.96" width="11.9" height="1.71" style="fill:rgb(20,41,76);"/>
            </g>
            <path d="M751.18,344.04L750.77,342.38L762.32,339.51L762.73,341.17L751.18,344.04Z" style="fill:rgb(20,41,76);fill-rule:nonzero;"/>
            <path d="M94.87,519.7L94.4,518.06L105.84,514.79L106.31,516.43L94.87,519.7Z" style="fill:rgb(20,41,76);fill-rule:nonzero;"/>
            <path d="M748.2,332.8L747.73,331.16L759.17,327.89L759.64,329.53L748.2,332.8Z" style="fill:rgb(20,41,76);fill-rule:nonzero;"/>
            <path d="M98.43,531.21L97.9,529.58L109.22,525.92L109.74,527.54L98.43,531.21Z" style="fill:rgb(20,41,76);fill-rule:nonzero;"/>
            <path d="M744.82,321.67L744.29,320.05L755.61,316.38L756.13,318.01L744.82,321.67Z" style="fill:rgb(20,41,76);fill-rule:nonzero;"/>
            <path d="M106.74,553.81L106.1,552.23L117.13,547.78L117.77,549.37L106.74,553.81Z" style="fill:rgb(20,41,76);fill-rule:nonzero;"/>
            <path d="M736.9,299.81L736.26,298.22L747.3,293.77L747.94,295.36L736.9,299.81Z" style="fill:rgb(20,41,76);fill-rule:nonzero;"/>
            <path d="M111.48,564.88L110.78,563.33L121.66,558.5L122.35,560.05L111.48,564.88Z" style="fill:rgb(20,41,76);fill-rule:nonzero;"/>
            <path d="M732.38,289.09L731.68,287.53L742.55,282.7L743.25,284.26L732.38,289.09Z" style="fill:rgb(20,41,76);fill-rule:nonzero;"/>
            <path d="M116.61,575.78L115.86,574.25L126.55,569.05L127.3,570.58L116.61,575.78Z" style="fill:rgb(20,41,76);fill-rule:nonzero;"/>
            <path d="M727.48,278.54L726.73,277.01L737.43,271.8L738.18,273.34L727.48,278.54Z" style="fill:rgb(20,41,76);fill-rule:nonzero;"/>
            <path d="M122.12,586.5L121.31,584.99L131.82,579.42L132.62,580.93L122.12,586.5Z" style="fill:rgb(20,41,76);fill-rule:nonzero;"/>
            <path d="M722.22,268.17L721.41,266.66L731.92,261.09L732.72,262.6L722.22,268.17Z" style="fill:rgb(20,41,76);fill-rule:nonzero;"/>
            <path d="M134.23,607.32L133.33,605.87L143.42,599.58L144.33,601.03L134.23,607.32Z" style="fill:rgb(20,41,76);fill-rule:nonzero;"/>
            <path d="M710.62,248L709.71,246.56L719.8,240.26L720.71,241.71L710.62,248Z" style="fill:rgb(20,41,76);fill-rule:nonzero;"/>
            <path d="M140.83,617.4L139.88,615.99L149.74,609.35L150.7,610.77L140.83,617.4Z" style="fill:rgb(20,41,76);fill-rule:nonzero;"/>
            <path d="M704.29,238.24L703.33,236.82L713.2,230.18L714.16,231.6L704.29,238.24Z" style="fill:rgb(20,41,76);fill-rule:nonzero;"/>
            <path d="M147.78,627.25L146.77,625.87L156.4,618.89L157.41,620.27L147.78,627.25Z" style="fill:rgb(20,41,76);fill-rule:nonzero;"/>
            <path d="M697.63,228.7L696.63,227.32L706.26,220.34L707.26,221.72L697.63,228.7Z" style="fill:rgb(20,41,76);fill-rule:nonzero;"/>
            <path d="M155.07,636.85L154.01,635.5L163.39,628.19L164.44,629.54L155.07,636.85Z" style="fill:rgb(20,41,76);fill-rule:nonzero;"/>
            <path d="M690.64,219.39L689.59,218.05L698.97,210.74L700.02,212.09L690.64,219.39Z" style="fill:rgb(20,41,76);fill-rule:nonzero;"/>
            <path d="M170.63,655.26L169.48,653.99L178.32,646.04L179.47,647.31L170.63,655.26Z" style="fill:rgb(20,41,76);fill-rule:nonzero;"/>
            <path d="M675.71,201.54L674.56,200.28L683.41,192.33L684.55,193.6L675.71,201.54Z" style="fill:rgb(20,41,76);fill-rule:nonzero;"/>
            <path d="M178.88,664.04L177.69,662.81L186.25,654.57L187.44,655.79L178.88,664.04Z" style="fill:rgb(20,41,76);fill-rule:nonzero;"/>
            <path d="M667.78,193.02L666.59,191.79L675.16,183.54L676.35,184.77L667.78,193.02Z" style="fill:rgb(20,41,76);fill-rule:nonzero;"/>
            <path d="M187.44,672.53L186.2,671.35L194.47,662.81L195.7,663.99L187.44,672.53Z" style="fill:rgb(20,41,76);fill-rule:nonzero;"/>
            <path d="M659.56,184.78L658.33,183.59L666.6,175.05L667.83,176.24L659.56,184.78Z" style="fill:rgb(20,41,76);fill-rule:nonzero;"/>
            <path d="M196.28,680.72L195.01,679.58L202.97,670.76L204.25,671.9L196.28,680.72Z" style="fill:rgb(20,41,76);fill-rule:nonzero;"/>
            <path d="M651.06,176.83L649.79,175.68L657.75,166.86L659.02,168.01L651.06,176.83Z" style="fill:rgb(20,41,76);fill-rule:nonzero;"/>
            <path d="M214.81,696.15L213.46,695.1L220.79,685.75L222.14,686.8L214.81,696.15Z" style="fill:rgb(20,41,76);fill-rule:nonzero;"/>
            <path d="M633.25,161.83L631.9,160.78L639.23,151.43L640.57,152.48L633.25,161.83Z" style="fill:rgb(20,41,76);fill-rule:nonzero;"/>
            <path d="M224.47,703.38L223.08,702.37L230.08,692.77L231.46,693.77L224.47,703.38Z" style="fill:rgb(20,41,76);fill-rule:nonzero;"/>
            <path d="M623.95,154.82L622.57,153.81L629.57,144.21L630.95,145.21L623.95,154.82Z" style="fill:rgb(20,41,76);fill-rule:nonzero;"/>
            <path d="M234.37,710.26L232.95,709.3L239.6,699.46L241.02,700.42L234.37,710.26Z" style="fill:rgb(20,41,76);fill-rule:nonzero;"/>
            <path d="M614.43,148.12L613.01,147.17L619.66,137.32L621.08,138.28L614.43,148.12Z" style="fill:rgb(20,41,76);fill-rule:nonzero;"/>
            <path d="M244.51,716.79L243.06,715.89L249.36,705.82L250.81,706.73L244.51,716.79Z" style="fill:rgb(20,41,76);fill-rule:nonzero;"/>
            <path d="M604.67,141.76L603.22,140.86L609.52,130.79L610.98,131.7L604.67,141.76Z" style="fill:rgb(20,41,76);fill-rule:nonzero;"/>
            <path d="M265.44,728.78L263.93,727.98L269.51,717.49L271.03,718.29L265.44,728.78Z" style="fill:rgb(20,41,76);fill-rule:nonzero;"/>
            <path d="M584.52,130.09L583.01,129.29L588.59,118.8L590.11,119.6L584.52,130.09Z" style="fill:rgb(20,41,76);fill-rule:nonzero;"/>
            <path d="M276.21,734.22L274.67,733.47L279.89,722.8L281.43,723.55L276.21,734.22Z" style="fill:rgb(20,41,76);fill-rule:nonzero;"/>
            <path d="M574.14,124.79L572.61,124.04L577.83,113.36L579.37,114.11L574.14,124.79Z" style="fill:rgb(20,41,76);fill-rule:nonzero;"/>
            <path d="M287.16,739.28L285.59,738.59L290.44,727.74L292,728.44L287.16,739.28Z" style="fill:rgb(20,41,76);fill-rule:nonzero;"/>
            <path d="M563.6,119.84L562.04,119.15L566.88,108.3L568.44,109L563.6,119.84Z" style="fill:rgb(20,41,76);fill-rule:nonzero;"/>
            <path d="M298.28,743.96L296.69,743.32L301.15,732.31L302.74,732.95L298.28,743.96Z" style="fill:rgb(20,41,76);fill-rule:nonzero;"/>
            <path d="M552.88,115.27L551.29,114.63L555.75,103.63L557.34,104.27L552.88,115.27Z" style="fill:rgb(20,41,76);fill-rule:nonzero;"/>
            <path d="M320.98,752.14L319.35,751.61L323.03,740.32L324.66,740.85L320.98,752.14Z" style="fill:rgb(20,41,76);fill-rule:nonzero;"/>
            <path d="M531,107.26L529.38,106.74L533.05,95.44L534.68,95.97L531,107.26Z" style="fill:rgb(20,41,76);fill-rule:nonzero;"/>
            <path d="M332.53,755.63L330.88,755.16L334.17,743.75L335.81,744.22L332.53,755.63Z" style="fill:rgb(20,41,76);fill-rule:nonzero;"/>
            <path d="M519.87,103.84L518.22,103.37L521.5,91.95L523.15,92.42L519.87,103.84Z" style="fill:rgb(20,41,76);fill-rule:nonzero;"/>
            <path d="M344.2,758.72L342.54,758.3L345.41,746.78L347.07,747.2L344.2,758.72Z" style="fill:rgb(20,41,76);fill-rule:nonzero;"/>
            <path d="M508.62,100.8L506.96,100.39L509.84,88.86L511.5,89.28L508.62,100.8Z" style="fill:rgb(20,41,76);fill-rule:nonzero;"/>
            <g transform="matrix(0.207741,-0.978184,0.978184,0.207741,-456.59,947.11)">
                <rect x="350.43" y="754.56" width="11.87" height="1.71" style="fill:rgb(20,41,76);"/>
            </g>
            <path d="M497.27,98.15L495.59,97.8L498.07,86.19L499.75,86.55L497.27,98.15Z" style="fill:rgb(20,41,76);fill-rule:nonzero;"/>
            <g transform="matrix(0.138827,-0.990317,0.990317,0.138827,-425.19,1030.06)">
                <rect x="373.78" y="758.67" width="11.88" height="1.71" style="fill:rgb(20,41,76);"/>
            </g>
            <g transform="matrix(0.138827,-0.990317,0.990317,0.138827,321.22,545.54)">
                <rect x="468.37" y="87.2" width="11.88" height="1.71" style="fill:rgb(20,41,76);"/>
            </g>
            <g transform="matrix(0.104181,-0.994558,0.994558,0.104181,-406.12,1071.05)">
                <rect x="385.56" y="760.11" width="11.87" height="1.71" style="fill:rgb(20,41,76);"/>
            </g>
            <g transform="matrix(0.104181,-0.994558,0.994558,0.104181,328.2,537.61)">
                <rect x="456.6" y="85.76" width="11.88" height="1.71" style="fill:rgb(20,41,76);"/>
            </g>
            <g transform="matrix(0.0694083,-0.997588,0.997588,0.0694083,-384.85,1111.42)">
                <rect x="397.38" y="761.14" width="11.87" height="1.71" style="fill:rgb(20,41,76);"/>
            </g>
            <g transform="matrix(0.0694083,-0.997588,0.997588,0.0694083,334.04,529.27)">
                <rect x="444.78" y="84.73" width="11.87" height="1.71" style="fill:rgb(20,41,76);"/>
            </g>
            <g transform="matrix(0.0347251,-0.999397,0.999397,0.0347251,-361.43,1151.02)">
                <rect x="409.22" y="761.76" width="11.87" height="1.71" style="fill:rgb(20,41,76);"/>
            </g>
            <g transform="matrix(0.04,-1,1,0.04,338.48,520.57)">
                <rect x="432.94" y="84.11" width="11.87" height="1.71" style="fill:rgb(20,41,76);"/>
            </g>
            <path d="M427,796.4C223.308,795.627 56.133,627.816 56.133,424.123C56.133,219.896 224.186,51.843 428.413,51.843C577.55,51.843 712.907,141.461 771.14,278.76C790.446,324.582 800.392,373.807 800.392,423.53C800.392,628.081 632.072,796.4 427.522,796.4C427.348,796.4 427.174,796.4 427,796.4ZM427,55.19C225.494,55.959 60.115,221.97 60.115,423.477C60.115,625.515 226.367,791.767 428.405,791.767C575.945,791.767 709.851,703.108 767.46,567.28C786.566,521.943 796.409,473.238 796.409,424.04C796.409,221.694 629.904,55.19 427.559,55.19C427.373,55.19 427.186,55.19 427,55.19Z" style="fill:rgb(20,41,76);fill-rule:nonzero;"/>
            <path d="M427.16,651.15L427,651.15C424.84,651.15 422.66,651.15 420.52,651.06C419.051,651.02 417.864,649.8 417.864,648.33C417.864,646.832 419.097,645.599 420.595,645.599C420.62,645.599 420.645,645.599 420.67,645.6C422.76,645.66 424.89,645.69 427,645.69L427.14,645.69C428.638,645.69 429.87,646.922 429.87,648.42C429.87,649.918 428.638,651.15 427.14,651.15L427.16,651.15ZM440.25,650.77C440.223,650.771 440.197,650.771 440.17,650.771C438.672,650.771 437.439,649.538 437.439,648.04C437.439,646.572 438.623,645.353 440.09,645.31C442.23,645.18 444.4,645.03 446.54,644.84C446.671,644.821 446.803,644.811 446.936,644.811C448.439,644.811 449.676,646.048 449.676,647.551C449.676,649.023 448.491,650.245 447.02,650.29C444.83,650.48 442.6,650.64 440.41,650.76L440.25,650.77ZM407.54,650.32L407.31,650.32C405.11,650.13 402.89,649.91 400.71,649.66C399.338,649.501 398.292,648.326 398.292,646.945C398.292,645.446 399.526,644.212 401.025,644.212C401.13,644.212 401.235,644.218 401.34,644.23C403.46,644.48 405.63,644.69 407.77,644.88C409.175,645.001 410.267,646.19 410.267,647.6C410.267,649.096 409.036,650.328 407.54,650.33L407.54,650.32ZM459.78,648.79C459.758,648.791 459.735,648.791 459.713,648.791C458.215,648.791 456.983,647.558 456.983,646.061C456.983,644.685 458.024,643.513 459.39,643.35C461.51,643.05 463.65,642.7 465.77,642.35C465.935,642.319 466.102,642.304 466.27,642.304C467.771,642.304 469.006,643.539 469.006,645.04C469.006,646.353 468.061,647.49 466.77,647.73C464.6,648.11 462.4,648.46 460.23,648.73L459.78,648.79ZM388.07,647.79C387.914,647.804 387.756,647.804 387.6,647.79C385.43,647.41 383.24,647 381.09,646.56C379.816,646.308 378.89,645.18 378.89,643.882C378.89,642.384 380.122,641.152 381.62,641.152C381.808,641.152 381.996,641.171 382.18,641.21C384.28,641.63 386.42,642.04 388.54,642.41C389.843,642.636 390.804,643.777 390.804,645.1C390.804,646.598 389.572,647.83 388.074,647.83C388.073,647.83 388.071,647.83 388.07,647.83L388.07,647.79ZM479.07,645.11C479.065,645.11 479.059,645.11 479.054,645.11C477.556,645.11 476.324,643.878 476.324,642.38C476.324,641.113 477.206,640.005 478.44,639.72C480.53,639.22 482.64,638.72 484.71,638.14C484.942,638.078 485.18,638.046 485.42,638.046C486.92,638.046 488.154,639.28 488.154,640.78C488.154,642.013 487.32,643.1 486.13,643.42C484.01,643.98 481.85,644.53 479.7,645.03C479.494,645.085 479.283,645.115 479.07,645.12L479.07,645.11ZM368.89,643.58C368.651,643.579 368.412,643.549 368.18,643.49C366.07,642.93 363.93,642.32 361.81,641.69C360.619,641.372 359.784,640.285 359.784,639.052C359.784,637.555 361.016,636.322 362.514,636.322C362.805,636.322 363.094,636.369 363.37,636.46C365.44,637.07 367.53,637.66 369.6,638.21C370.795,638.525 371.635,639.614 371.635,640.85C371.635,642.348 370.403,643.58 368.905,643.58C368.9,643.58 368.895,643.58 368.89,643.58ZM498,639.77C496.504,639.768 495.273,638.536 495.273,637.04C495.273,635.868 496.028,634.821 497.14,634.45C499.14,633.77 501.23,633.06 503.25,632.32C503.55,632.211 503.866,632.155 504.185,632.155C505.685,632.155 506.92,633.39 506.92,634.89C506.92,636.037 506.198,637.068 505.12,637.46C503.06,638.21 500.95,638.94 498.86,639.63C498.584,639.726 498.293,639.773 498,639.77ZM350.2,637.77C349.88,637.771 349.562,637.716 349.26,637.61C347.18,636.85 345.09,636.06 343.05,635.25C341.991,634.849 341.286,633.829 341.286,632.697C341.286,631.199 342.519,629.967 344.016,629.967C344.371,629.967 344.722,630.036 345.05,630.17C347.05,630.96 349.05,631.74 351.11,632.47C352.193,632.858 352.919,633.89 352.919,635.04C352.919,636.538 351.687,637.77 350.189,637.77C350.186,637.77 350.183,637.77 350.18,637.77L350.2,637.77ZM516.33,632.85C516.325,632.85 516.319,632.85 516.314,632.85C514.816,632.85 513.584,631.618 513.584,630.12C513.584,629.029 514.237,628.039 515.24,627.61C517.24,626.76 519.19,625.87 521.12,624.97C521.483,624.801 521.879,624.714 522.28,624.714C523.792,624.714 525.036,625.958 525.036,627.47C525.036,628.541 524.412,629.519 523.44,629.97C521.44,630.9 519.44,631.81 517.44,632.68C517.069,632.799 516.677,632.84 516.29,632.8L516.33,632.85ZM332,630.21C331.603,630.21 331.211,630.125 330.85,629.96C328.85,629.03 326.85,628.06 324.85,627.07C323.93,626.606 323.348,625.66 323.348,624.63C323.348,623.131 324.581,621.898 326.08,621.898C326.507,621.898 326.929,621.998 327.31,622.19C329.23,623.19 331.19,624.1 333.14,625.01C334.114,625.448 334.744,626.422 334.744,627.49C334.744,628.982 333.516,630.21 332.024,630.21C332.009,630.21 331.995,630.21 331.98,630.21L332,630.21ZM533.95,624.21C532.453,624.209 531.221,622.977 531.221,621.48C531.221,620.48 531.771,619.557 532.65,619.08C534.53,618.08 536.43,617 538.28,615.93C538.665,615.734 539.09,615.632 539.522,615.632C541.025,615.632 542.262,616.869 542.262,618.372C542.262,619.293 541.798,620.153 541.03,620.66C539.13,621.76 537.18,622.84 535.25,623.88C534.848,624.122 534.389,624.253 533.92,624.26L533.95,624.21ZM314.56,621.1C314.079,621.101 313.606,620.973 313.19,620.73C311.28,619.63 309.36,618.49 307.49,617.34C306.686,616.842 306.195,615.961 306.195,615.015C306.195,613.515 307.43,612.28 308.93,612.28C309.439,612.28 309.938,612.422 310.37,612.69C312.19,613.81 314.07,614.93 315.93,616C316.779,616.486 317.305,617.392 317.305,618.37C317.305,619.868 316.073,621.1 314.575,621.1C314.57,621.1 314.565,621.1 314.56,621.1ZM550.78,614.17C549.289,614.161 548.067,612.931 548.067,611.44C548.067,610.529 548.522,609.676 549.28,609.17C551.06,608 552.86,606.78 554.62,605.55C555.08,605.227 555.628,605.054 556.19,605.054C557.688,605.054 558.921,606.287 558.921,607.785C558.921,608.674 558.487,609.509 557.76,610.02C555.96,611.29 554.12,612.54 552.29,613.74C551.835,614.048 551.299,614.215 550.75,614.22L550.78,614.17ZM298,610.61C297.44,610.612 296.894,610.437 296.44,610.11C294.63,608.85 292.82,607.55 291.06,606.24C290.306,605.731 289.852,604.879 289.852,603.969C289.852,602.465 291.089,601.229 292.592,601.229C293.226,601.229 293.84,601.448 294.33,601.85C296.05,603.13 297.82,604.41 299.58,605.64C300.338,606.146 300.795,606.999 300.795,607.911C300.795,609.408 299.562,610.641 298.065,610.641C298.043,610.641 298.022,610.641 298,610.64L298,610.61ZM566.7,602.75C566.694,602.75 566.688,602.75 566.682,602.75C565.185,602.75 563.952,601.518 563.952,600.02C563.952,599.181 564.339,598.387 565,597.87C566.69,596.54 568.37,595.17 570,593.8C570.493,593.385 571.116,593.158 571.76,593.158C573.259,593.158 574.492,594.391 574.492,595.89C574.492,596.696 574.136,597.461 573.52,597.98C571.84,599.39 570.12,600.79 568.39,602.16C567.895,602.55 567.28,602.758 566.65,602.75L566.7,602.75ZM282.42,598.67C281.776,598.671 281.153,598.444 280.66,598.03C278.97,596.62 277.28,595.16 275.66,593.71C275.127,593.194 274.826,592.483 274.826,591.741C274.826,590.238 276.063,589.001 277.566,589.001C278.198,589.001 278.811,589.22 279.3,589.62C280.91,591.05 282.55,592.47 284.2,593.84C284.824,594.358 285.186,595.129 285.186,595.94C285.186,597.438 283.953,598.67 282.456,598.67C282.45,598.67 282.42,598.67 282.42,598.67ZM581.55,589.94C581.546,589.94 581.543,589.94 581.539,589.94C580.041,589.94 578.809,588.708 578.809,587.21C578.809,586.457 579.121,585.736 579.67,585.22C581.23,583.75 582.79,582.22 584.31,580.72C584.823,580.206 585.519,579.917 586.245,579.917C587.744,579.917 588.978,581.151 588.978,582.65C588.978,583.373 588.691,584.068 588.18,584.58C586.62,586.14 585.02,587.69 583.43,589.19C582.91,589.683 582.216,589.952 581.5,589.94L581.55,589.94ZM267.94,585.43C267.213,585.434 266.513,585.145 266,584.63C264.44,583.08 262.89,581.49 261.38,579.9C260.902,579.391 260.635,578.718 260.635,578.02C260.635,576.514 261.874,575.275 263.38,575.275C264.137,575.275 264.861,575.588 265.38,576.14C266.85,577.7 268.38,579.25 269.89,580.77C270.404,581.28 270.693,581.976 270.693,582.7C270.693,583.424 270.404,584.12 269.89,584.63C269.365,585.164 268.639,585.455 267.89,585.43L267.94,585.43ZM595.23,575.89C593.749,575.859 592.547,574.632 592.547,573.151C592.547,572.484 592.79,571.84 593.23,571.34C594.66,569.74 596.08,568.1 597.46,566.45C597.98,565.829 598.75,565.47 599.56,565.47C601.063,565.47 602.3,566.707 602.3,568.21C602.3,568.853 602.073,569.477 601.66,569.97C600.24,571.65 598.78,573.34 597.32,574.97C596.781,575.582 595.995,575.92 595.18,575.89L595.23,575.89ZM254.61,571C253.8,570.995 253.032,570.628 252.52,570C251.1,568.32 249.69,566.6 248.33,564.88C247.949,564.397 247.741,563.8 247.741,563.185C247.741,561.685 248.975,560.451 250.475,560.451C251.311,560.451 252.102,560.834 252.62,561.49C253.95,563.16 255.33,564.84 256.71,566.49C257.118,566.982 257.342,567.601 257.342,568.24C257.342,569.74 256.11,570.975 254.61,570.98L254.61,571ZM607.61,560.7C607.607,560.7 607.605,560.7 607.602,560.7C606.105,560.7 604.872,559.468 604.872,557.97C604.872,557.379 605.065,556.803 605.42,556.33C606.71,554.61 607.98,552.85 609.22,551.1C609.739,550.443 610.532,550.06 611.369,550.06C612.872,550.06 614.109,551.297 614.109,552.8C614.109,553.308 613.967,553.807 613.7,554.24C612.44,556.03 611.13,557.84 609.81,559.6C609.29,560.296 608.469,560.705 607.6,560.7L607.61,560.7ZM242.61,555.48C241.716,555.484 240.875,555.05 240.36,554.32C239.1,552.52 237.85,550.69 236.64,548.86C236.41,548.451 236.29,547.989 236.29,547.519C236.29,546.016 237.527,544.779 239.03,544.779C239.885,544.779 240.692,545.18 241.21,545.86C242.39,547.64 243.61,549.44 244.84,551.19C245.166,551.651 245.341,552.202 245.341,552.766C245.341,553.655 244.907,554.489 244.18,555C243.729,555.307 243.196,555.474 242.65,555.48L242.61,555.48ZM618.61,544.48C618.102,544.478 617.603,544.336 617.17,544.07C616.362,543.576 615.868,542.696 615.868,541.749C615.868,541.24 616.011,540.742 616.28,540.31C617.41,538.48 618.53,536.62 619.61,534.76C620.113,533.971 620.986,533.492 621.921,533.492C623.424,533.492 624.661,534.729 624.661,536.232C624.661,536.673 624.554,537.109 624.35,537.5C623.24,539.4 622.1,541.31 620.94,543.18C620.453,543.976 619.593,544.47 618.66,544.49L618.61,544.48ZM232.08,539C231.105,539.003 230.199,538.483 229.71,537.64C228.61,535.74 227.52,533.81 226.48,531.88C226.264,531.481 226.151,531.034 226.151,530.58C226.151,529.08 227.385,527.846 228.885,527.846C229.888,527.846 230.813,528.398 231.29,529.28C232.29,531.16 233.37,533.05 234.45,534.9C234.687,535.314 234.811,535.783 234.811,536.26C234.811,537.76 233.58,538.995 232.08,539ZM628.26,527.38C627.832,527.379 627.41,527.276 627.03,527.08C626.106,526.621 625.519,525.675 625.519,524.644C625.519,524.219 625.619,523.8 625.81,523.42C626.81,521.51 627.73,519.55 628.64,517.6C629.09,516.627 630.068,516.001 631.14,516.001C632.651,516.001 633.894,517.244 633.894,518.755C633.894,519.154 633.807,519.548 633.64,519.91C632.71,521.91 631.73,523.91 630.74,525.91C630.26,526.828 629.296,527.396 628.26,527.37L628.26,527.38ZM223,521.66C221.937,521.664 220.965,521.045 220.52,520.08C219.59,518.08 218.67,516.08 217.8,514.08C217.716,513.813 217.673,513.535 217.673,513.255C217.673,511.752 218.91,510.515 220.413,510.515C221.401,510.515 222.315,511.049 222.8,511.91C223.65,513.91 224.54,515.85 225.45,517.78C225.619,518.142 225.707,518.536 225.707,518.936C225.707,519.995 225.09,520.962 224.13,521.41C223.776,521.575 223.39,521.66 223,521.66ZM636.32,509.47C635.977,509.466 635.638,509.398 635.32,509.27C634.28,508.863 633.593,507.854 633.593,506.738C633.593,506.389 633.66,506.043 633.79,505.72C634.58,503.72 635.36,501.72 636.09,499.72C636.509,498.69 637.516,498.013 638.628,498.013C640.131,498.013 641.368,499.25 641.368,500.753C641.368,501.034 641.325,501.313 641.24,501.58C640.49,503.65 639.69,505.74 638.88,507.78C638.448,508.807 637.434,509.476 636.32,509.47ZM215.47,503.61C214.324,503.606 213.296,502.885 212.9,501.81C212.15,499.75 211.41,497.65 210.72,495.57C210.646,495.318 210.608,495.057 210.608,494.795C210.608,493.292 211.845,492.055 213.348,492.055C214.494,492.055 215.525,492.774 215.92,493.85C216.59,495.85 217.31,497.92 218.05,499.94C218.556,501.35 217.817,502.927 216.41,503.44C216.11,503.555 215.791,503.613 215.47,503.61ZM642.77,490.94C642.506,490.938 642.244,490.901 641.99,490.83C640.555,490.399 639.726,488.867 640.15,487.43C640.76,485.38 641.35,483.29 641.91,481.22C642.185,479.968 643.304,479.068 644.586,479.068C646.089,479.068 647.326,480.305 647.326,481.808C647.326,482.087 647.284,482.364 647.2,482.63C646.63,484.75 646.02,486.9 645.4,488.99C645.052,490.147 643.978,490.943 642.77,490.94ZM209.55,484.94C208.324,484.944 207.238,484.122 206.91,482.94C206.34,480.82 205.79,478.66 205.28,476.53C205.237,476.336 205.216,476.138 205.216,475.94C205.216,474.437 206.453,473.2 207.956,473.2C209.203,473.2 210.3,474.052 210.61,475.26C211.11,477.35 211.61,479.45 212.2,481.52C212.585,482.971 211.71,484.482 210.26,484.87C210.027,484.919 209.788,484.939 209.55,484.93L209.55,484.94ZM647.55,471.94C647.362,471.938 647.175,471.922 646.99,471.89C645.521,471.586 644.561,470.13 644.86,468.66C645.29,466.56 645.7,464.43 646.07,462.32C646.358,461.084 647.469,460.202 648.739,460.202C650.242,460.202 651.479,461.438 651.479,462.942C651.479,463.048 651.472,463.154 651.46,463.26C651.08,465.43 650.67,467.61 650.22,469.76C649.965,471.018 648.853,471.933 647.57,471.94L647.55,471.94ZM205.27,465.81C203.952,465.802 202.815,464.847 202.58,463.55C202.2,461.4 201.85,459.2 201.52,457.02C201.508,456.917 201.502,456.814 201.502,456.711C201.502,455.207 202.739,453.971 204.242,453.971C205.565,453.971 206.708,454.928 206.94,456.23C207.26,458.36 207.6,460.5 207.94,462.6C207.968,462.758 207.982,462.918 207.982,463.079C207.982,464.399 207.021,465.538 205.72,465.76C205.578,465.789 205.434,465.805 205.29,465.81L205.27,465.81ZM650.67,452.6L650.35,452.6C648.872,452.428 647.793,451.079 647.95,449.6C648.19,447.48 648.41,445.32 648.6,443.18C648.797,441.841 649.957,440.838 651.311,440.838C652.814,440.838 654.051,442.075 654.051,443.578C654.051,443.602 654.051,443.626 654.05,443.65C653.86,445.84 653.64,448.05 653.39,450.23C653.201,451.581 652.034,452.598 650.67,452.6ZM202.73,446.38C201.323,446.38 200.134,445.292 200.01,443.89C199.82,441.71 199.65,439.49 199.52,437.3C199.517,437.25 199.516,437.2 199.516,437.15C199.516,435.645 200.755,434.406 202.26,434.406C203.709,434.406 204.921,435.553 205,437C205.13,439.14 205.29,441.3 205.47,443.43C205.48,443.526 205.485,443.622 205.485,443.718C205.485,445.13 204.387,446.319 202.98,446.43L202.73,446.38ZM652.07,433.06L652,433.06C650.533,433.018 649.349,431.799 649.349,430.331C649.349,430.304 649.349,430.277 649.35,430.25C649.41,428.11 649.44,425.94 649.44,423.8L649.44,423.25C649.527,421.812 650.734,420.675 652.175,420.675C653.616,420.675 654.823,421.812 654.91,423.25L654.91,423.81C654.91,426.01 654.91,428.23 654.82,430.43C654.766,431.897 653.538,433.072 652.07,433.06ZM201.87,426.81C200.371,426.81 199.135,425.579 199.13,424.08L199.13,423.81C199.13,421.7 199.13,419.58 199.22,417.47C199.335,416.055 200.532,414.952 201.951,414.952C203.427,414.952 204.651,416.145 204.69,417.62C204.63,419.67 204.61,421.75 204.61,423.8L204.61,424.08C204.605,425.579 203.369,426.81 201.87,426.81ZM651.76,412.91C650.321,412.912 649.114,411.777 649.03,410.34C648.9,408.2 648.74,406.03 648.55,403.91C648.549,403.878 648.548,403.845 648.548,403.813C648.548,402.309 649.785,401.073 651.288,401.073C652.644,401.073 653.806,402.078 654,403.42C654.2,405.6 654.36,407.82 654.49,410.02C654.575,411.517 653.416,412.819 651.92,412.91L651.76,412.91ZM202.69,407.24L202.45,407.24C201.041,407.118 199.947,405.924 199.947,404.51C199.947,404.42 199.951,404.33 199.96,404.24C200.14,402.06 200.36,399.85 200.61,397.67C200.767,396.291 201.947,395.237 203.335,395.237C204.84,395.237 206.078,396.475 206.078,397.98C206.078,398.084 206.072,398.187 206.06,398.29C205.81,400.42 205.6,402.58 205.41,404.71C205.306,406.127 204.111,407.239 202.69,407.24ZM649.74,393.43C648.388,393.43 647.227,392.428 647.03,391.09C646.72,388.98 646.37,386.83 646.03,384.73C645.999,384.565 645.984,384.398 645.984,384.23C645.984,382.726 647.221,381.489 648.725,381.489C650.041,381.489 651.18,382.436 651.42,383.73C651.81,385.89 652.17,388.08 652.49,390.26C652.509,390.392 652.519,390.525 652.519,390.658C652.519,392.009 651.517,393.167 650.18,393.36L649.74,393.43ZM205.2,387.81C205.044,387.824 204.886,387.824 204.73,387.81C203.424,387.587 202.459,386.444 202.459,385.119C202.459,384.962 202.473,384.805 202.5,384.65C202.88,382.49 203.29,380.31 203.73,378.15C204.002,376.895 205.123,375.991 206.408,375.991C207.911,375.991 209.148,377.228 209.148,378.731C209.148,378.902 209.132,379.072 209.1,379.24C208.67,381.35 208.26,383.48 207.9,385.59C207.651,386.877 206.511,387.815 205.2,387.81ZM646,374.19C644.738,374.192 643.631,373.318 643.34,372.09C642.84,370.02 642.34,367.92 641.75,365.84C641.688,365.608 641.656,365.37 641.656,365.13C641.656,363.63 642.89,362.396 644.39,362.396C645.623,362.396 646.71,363.23 647.03,364.42C647.61,366.54 648.16,368.7 648.66,370.83C648.712,371.042 648.738,371.259 648.738,371.477C648.738,372.728 647.875,373.825 646.66,374.12C646.443,374.169 646.222,374.192 646,374.19ZM209.39,368.67C209.151,368.669 208.912,368.639 208.68,368.58C207.486,368.264 206.648,367.176 206.648,365.941C206.648,365.704 206.679,365.469 206.74,365.24C207.3,363.12 207.91,360.98 208.54,358.87C208.913,357.755 209.963,356.999 211.139,356.999C212.642,356.999 213.879,358.236 213.879,359.739C213.879,359.972 213.849,360.204 213.79,360.43C213.17,362.49 212.58,364.58 212.03,366.64C211.718,367.828 210.639,368.665 209.41,368.67L209.39,368.67ZM640.61,355.35C639.436,355.355 638.384,354.603 638.01,353.49C637.33,351.49 636.61,349.41 635.87,347.4C635.76,347.099 635.704,346.781 635.704,346.46C635.704,344.956 636.941,343.719 638.445,343.719C639.594,343.719 640.626,344.441 641.02,345.52C641.77,347.58 642.51,349.68 643.21,351.76C643.304,352.039 643.351,352.331 643.351,352.626C643.351,353.798 642.594,354.844 641.48,355.21C641.206,355.303 640.919,355.35 640.63,355.35L640.61,355.35ZM215.28,350C214.963,350 214.649,349.946 214.35,349.84C213.27,349.451 212.546,348.42 212.546,347.272C212.546,346.954 212.602,346.639 212.71,346.34C213.46,344.27 214.25,342.19 215.06,340.14C215.423,339.009 216.481,338.237 217.669,338.237C219.172,338.237 220.409,339.474 220.409,340.977C220.409,341.379 220.321,341.776 220.15,342.14C219.36,344.14 218.59,346.14 217.85,348.19C217.462,349.273 216.43,350 215.28,350ZM633.61,337.1C632.522,337.105 631.532,336.458 631.1,335.46C630.24,333.46 629.35,331.53 628.44,329.6C628.271,329.237 628.184,328.841 628.184,328.44C628.184,326.928 629.428,325.684 630.94,325.684C632.011,325.684 632.989,326.308 633.44,327.28C634.37,329.28 635.28,331.28 636.16,333.28C636.311,333.625 636.389,333.997 636.389,334.373C636.389,335.461 635.739,336.449 634.74,336.88C634.381,337.023 633.996,337.091 633.61,337.08L633.61,337.1ZM222.79,331.86C221.29,331.848 220.063,330.61 220.063,329.11C220.063,328.717 220.147,328.328 220.31,327.97C221.25,325.97 222.22,323.97 223.2,321.97C223.675,321.076 224.608,320.515 225.62,320.515C227.123,320.515 228.36,321.752 228.36,323.255C228.36,323.658 228.271,324.055 228.1,324.42C227.1,326.32 226.19,328.28 225.28,330.24C224.831,331.209 223.858,331.834 222.79,331.84L222.79,331.86ZM625,319.51C623.997,319.509 623.071,318.96 622.59,318.08C621.59,316.2 620.5,314.31 619.43,312.47C619.135,312.022 618.978,311.498 618.978,310.962C618.978,309.459 620.214,308.222 621.718,308.222C622.747,308.222 623.693,308.802 624.16,309.72C625.26,311.61 626.35,313.55 627.4,315.47C627.606,315.862 627.713,316.298 627.713,316.74C627.713,318.231 626.491,319.461 625,319.47L625,319.51ZM231.84,314.43C230.344,314.42 229.119,313.186 229.119,311.69C229.119,311.213 229.243,310.744 229.48,310.33C230.58,308.42 231.72,306.51 232.88,304.64C233.391,303.898 234.236,303.454 235.137,303.454C236.64,303.454 237.877,304.691 237.877,306.194C237.877,306.654 237.761,307.107 237.54,307.51C236.41,309.33 235.3,311.2 234.22,313.06C233.733,313.903 232.833,314.425 231.86,314.43L231.84,314.43ZM614.9,302.74C613.979,302.741 613.117,302.278 612.61,301.51C611.43,299.73 610.2,297.93 608.97,296.19C608.68,295.745 608.526,295.225 608.526,294.694C608.526,293.191 609.763,291.954 611.266,291.954C612.123,291.954 612.932,292.357 613.45,293.04C614.71,294.83 615.97,296.67 617.18,298.5C617.472,298.946 617.627,299.467 617.627,300C617.627,301.498 616.398,302.733 614.9,302.74ZM242.4,297.89C241.84,297.892 241.294,297.717 240.84,297.39C239.611,296.534 239.304,294.819 240.16,293.59C241.42,291.8 242.73,289.99 244.04,288.22C244.56,287.571 245.347,287.193 246.178,287.193C247.682,287.193 248.918,288.43 248.918,289.933C248.918,290.485 248.752,291.024 248.44,291.48C247.15,293.21 245.88,294.97 244.65,296.72C244.142,297.449 243.309,297.887 242.42,297.89L242.4,297.89ZM603.4,286.89C602.57,286.897 601.779,286.529 601.25,285.89C599.92,284.22 598.55,282.54 597.16,280.89C596.802,280.415 596.608,279.836 596.608,279.241C596.608,277.738 597.845,276.501 599.348,276.501C600.107,276.501 600.832,276.816 601.35,277.37C602.77,279.05 604.18,280.77 605.54,282.48C605.923,282.964 606.131,283.563 606.131,284.18C606.131,285.68 604.9,286.915 603.4,286.92L603.4,286.89ZM254.4,282.32C252.9,282.315 251.668,281.08 251.668,279.58C251.668,278.941 251.892,278.322 252.3,277.83C253.72,276.15 255.18,274.46 256.63,272.83C257.149,272.242 257.896,271.905 258.68,271.905C260.18,271.905 261.415,273.14 261.415,274.64C261.415,275.306 261.171,275.95 260.73,276.45C259.3,278.05 257.88,279.7 256.5,281.34C255.979,281.972 255.199,282.336 254.38,282.33L254.4,282.32ZM590.54,272.1C589.783,272.103 589.058,271.791 588.54,271.24C587.06,269.68 585.54,268.13 584.03,266.62C583.516,266.107 583.227,265.411 583.227,264.685C583.227,263.186 584.461,261.952 585.96,261.952C586.683,261.952 587.378,262.239 587.89,262.75C589.45,264.3 591,265.89 592.52,267.49C592.994,267.997 593.257,268.666 593.257,269.36C593.257,270.862 592.022,272.099 590.52,272.1L590.54,272.1ZM267.66,267.86C266.162,267.852 264.935,266.618 264.935,265.12C264.935,264.402 265.217,263.712 265.72,263.2C267.27,261.65 268.87,260.1 270.47,258.59C270.979,258.112 271.652,257.845 272.35,257.845C273.856,257.845 275.095,259.084 275.095,260.59C275.095,261.347 274.782,262.071 274.23,262.59C272.67,264.06 271.11,265.59 269.6,267.09C269.075,267.598 268.37,267.879 267.64,267.87L267.66,267.86ZM576.43,258.47C575.76,258.47 575.112,258.225 574.61,257.78C573,256.35 571.36,254.94 569.71,253.56C569.024,253.043 568.619,252.231 568.619,251.372C568.619,249.869 569.856,248.632 571.359,248.632C572.054,248.632 572.723,248.896 573.23,249.37C574.91,250.78 576.6,252.23 578.23,253.69C578.819,254.208 579.157,254.956 579.157,255.74C579.157,257.238 577.925,258.47 576.427,258.47C576.421,258.47 576.416,258.47 576.41,258.47L576.43,258.47ZM282.1,254.62C282.095,254.62 282.091,254.62 282.086,254.62C280.589,254.62 279.356,253.388 279.356,251.89C279.356,251.084 279.713,250.318 280.33,249.8C282.01,248.39 283.73,246.98 285.46,245.61C285.924,245.279 286.481,245.1 287.052,245.1C288.555,245.1 289.792,246.337 289.792,247.84C289.792,248.623 289.456,249.37 288.87,249.89C287.18,251.23 285.5,252.6 283.87,253.98C283.375,254.396 282.747,254.623 282.1,254.62ZM561.16,246.11C560.574,246.111 560.003,245.925 559.53,245.58C557.81,244.3 556.04,243.03 554.28,241.8C553.473,241.301 552.98,240.418 552.98,239.469C552.98,237.966 554.217,236.729 555.72,236.729C556.337,236.729 556.936,236.937 557.42,237.32C559.22,238.58 561.04,239.88 562.8,241.19C563.492,241.705 563.9,242.518 563.9,243.38C563.9,244.878 562.668,246.11 561.17,246.11C561.167,246.11 561.163,246.11 561.16,246.11ZM297.65,242.67C297.628,242.671 297.607,242.671 297.585,242.671C296.088,242.671 294.855,241.438 294.855,239.941C294.855,239.029 295.312,238.176 296.07,237.67C297.87,236.41 299.71,235.16 301.54,233.95C301.973,233.68 302.474,233.537 302.984,233.537C304.482,233.537 305.714,234.769 305.714,236.267C305.714,237.161 305.275,238 304.54,238.51C302.75,239.69 300.95,240.91 299.2,242.14C298.75,242.472 298.209,242.657 297.65,242.67ZM544.89,235.12C544.384,235.121 543.888,234.979 543.46,234.71C541.62,233.58 539.75,232.47 537.89,231.4C537.047,230.912 536.527,230.009 536.527,229.035C536.527,227.536 537.761,226.302 539.26,226.302C539.741,226.302 540.214,226.429 540.63,226.67C542.53,227.76 544.45,228.9 546.33,230.06C547.14,230.556 547.635,231.439 547.635,232.389C547.635,232.894 547.495,233.39 547.23,233.82C546.726,234.626 545.84,235.117 544.89,235.12ZM314.17,232.12C312.671,232.113 311.442,230.879 311.442,229.38C311.442,228.411 311.956,227.512 312.79,227.02C314.69,225.92 316.63,224.84 318.56,223.79C318.991,223.526 319.486,223.387 319.991,223.387C321.494,223.387 322.731,224.624 322.731,226.127C322.731,227.181 322.122,228.146 321.17,228.6C319.29,229.6 317.4,230.67 315.54,231.75C315.124,231.993 314.651,232.121 314.17,232.12ZM527.71,225.57C527.286,225.572 526.868,225.472 526.49,225.28C524.57,224.28 522.6,223.38 520.65,222.47C519.69,222.022 519.074,221.054 519.074,219.995C519.074,218.497 520.307,217.264 521.805,217.264C522.204,217.264 522.598,217.351 522.96,217.52C524.96,218.44 526.96,219.41 528.96,220.4C529.881,220.862 530.466,221.809 530.466,222.84C530.466,224.338 529.233,225.57 527.736,225.57C527.734,225.57 527.71,225.57 527.71,225.57ZM331.54,223.05C331.534,223.05 331.527,223.05 331.521,223.05C330.023,223.05 328.791,221.818 328.791,220.32C328.791,219.256 329.413,218.285 330.38,217.84C332.38,216.91 334.38,216 336.38,215.13C336.754,214.947 337.165,214.851 337.582,214.851C339.079,214.851 340.312,216.084 340.312,217.581C340.312,218.709 339.613,219.726 338.56,220.13C336.56,220.98 334.62,221.87 332.68,222.78C332.323,222.949 331.935,223.041 331.54,223.05ZM509.76,217.56C509.418,217.56 509.079,217.495 508.76,217.37C506.76,216.58 504.76,215.81 502.69,215.08C501.612,214.688 500.89,213.657 500.89,212.51C500.89,211.01 502.125,209.775 503.625,209.775C503.944,209.775 504.26,209.831 504.56,209.94C506.63,210.69 508.73,211.48 510.78,212.29C511.821,212.7 512.509,213.711 512.509,214.83C512.509,216.327 511.277,217.56 509.78,217.56L509.76,217.56ZM349.62,215.56C349.614,215.56 349.607,215.56 349.601,215.56C348.103,215.56 346.871,214.328 346.871,212.83C346.871,211.68 347.597,210.648 348.68,210.26C350.74,209.51 352.85,208.78 354.94,208.08C355.219,207.987 355.511,207.939 355.805,207.939C357.303,207.939 358.536,209.172 358.536,210.67C358.536,211.842 357.781,212.889 356.67,213.26C354.67,213.94 352.58,214.66 350.57,215.39C350.265,215.494 349.943,215.542 349.62,215.53L349.62,215.56ZM491.18,211.19C490.916,211.188 490.654,211.151 490.4,211.08C488.34,210.47 486.25,209.88 484.17,209.33C482.978,209.012 482.142,207.924 482.142,206.69C482.142,205.191 483.376,203.957 484.875,203.957C485.113,203.957 485.35,203.989 485.58,204.05C487.7,204.61 489.85,205.22 491.96,205.84C493.12,206.18 493.923,207.251 493.923,208.46C493.923,209.958 492.691,211.19 491.193,211.19C491.189,211.19 491.184,211.19 491.18,211.19ZM368.34,209.64C368.335,209.64 368.33,209.64 368.325,209.64C366.827,209.64 365.595,208.408 365.595,206.91C365.595,205.674 366.435,204.585 367.63,204.27C369.76,203.7 371.92,203.15 374.06,202.65C374.292,202.587 374.531,202.556 374.771,202.556C376.269,202.556 377.501,203.788 377.501,205.286C377.501,206.577 376.585,207.7 375.32,207.96C373.24,208.46 371.13,208.96 369.06,209.55C368.823,209.599 368.582,209.619 368.34,209.61L368.34,209.64ZM472.13,206.45C471.945,206.45 471.761,206.43 471.58,206.39C469.48,205.97 467.34,205.56 465.22,205.2C463.918,204.973 462.959,203.831 462.959,202.51C462.959,201.012 464.192,199.779 465.69,199.779C465.848,199.779 466.005,199.793 466.16,199.82C468.32,200.19 470.52,200.6 472.67,201.04C473.948,201.288 474.88,202.418 474.88,203.72C474.88,205.218 473.648,206.45 472.15,206.45C472.144,206.45 472.137,206.45 472.13,206.45ZM387.51,205.39C386.022,205.369 384.81,204.138 384.81,202.65C384.81,201.342 385.746,200.208 387.03,199.96C389.19,199.58 391.39,199.23 393.58,198.91C393.737,198.882 393.897,198.868 394.057,198.868C395.555,198.868 396.787,200.1 396.787,201.598C396.787,202.978 395.741,204.152 394.37,204.31C392.24,204.62 390.09,204.97 387.99,205.31C387.832,205.341 387.671,205.358 387.51,205.36L387.51,205.39ZM452.73,203.39L452.42,203.39C450.28,203.15 448.12,202.93 445.98,202.75C444.576,202.629 443.485,201.439 443.485,200.03C443.485,198.532 444.717,197.3 446.215,197.3C446.293,197.3 446.372,197.303 446.45,197.31C448.63,197.49 450.85,197.71 453.04,197.96C454.454,198.07 455.558,199.264 455.558,200.682C455.558,202.179 454.326,203.412 452.828,203.412C452.795,203.412 452.763,203.411 452.73,203.41L452.73,203.39ZM407,202.79C405.531,202.743 404.348,201.521 404.348,200.051C404.348,198.668 405.396,197.491 406.77,197.33C408.96,197.14 411.18,196.98 413.38,196.85C413.447,196.845 413.514,196.843 413.581,196.843C415.078,196.843 416.311,198.075 416.311,199.573C416.311,201.025 415.151,202.237 413.7,202.3C411.56,202.43 409.39,202.59 407.25,202.78L407,202.79ZM433.17,201.99L433.1,201.99C431.1,201.93 429.1,201.91 427.05,201.91L426.63,201.91C426.575,201.913 426.52,201.915 426.465,201.915C424.961,201.915 423.725,200.678 423.725,199.175C423.725,197.672 424.961,196.435 426.465,196.435C426.52,196.435 426.575,196.437 426.63,196.44L427,196.44C429,196.44 431.13,196.44 433.19,196.53C434.673,196.552 435.88,197.777 435.88,199.26C435.88,200.758 434.648,201.99 433.15,201.99C433.137,201.99 433.123,201.99 433.11,201.99L433.17,201.99Z" style="fill:rgb(20,41,76);fill-rule:nonzero;"/>
            <path d="M831.08,422.08L816.55,422.08L816.55,435.52L832.74,435.52L832.74,439.52L811.74,439.52L811.74,402.27L831.92,402.27L831.92,406.27L816.55,406.27L816.55,418.05L831.08,418.05L831.08,422.08Z" style="fill:rgb(20,41,76);fill-rule:nonzero;"/>
            <path d="M833.74,440.55L810.74,440.55L810.74,401.28L832.92,401.28L832.92,407.28L817.55,407.28L817.55,417.06L832.08,417.06L832.08,423.06L817.55,423.06L817.55,434.51L833.74,434.51L833.74,440.55ZM812.74,438.55L831.74,438.55L831.74,436.5L815.55,436.5L815.55,421.08L830.08,421.08L830.08,419.08L815.55,419.08L815.55,405.31L830.91,405.31L830.91,403.31L812.73,403.31L812.74,438.55Z" style="fill:rgb(20,41,76);fill-rule:nonzero;"/>
            <path d="M414.33,38.28L414.33,1L419.6,1L431.6,19.86C434.089,23.758 436.324,27.813 438.29,32L438.4,32C437.95,27 437.84,22.48 437.84,16.68L437.84,1L442.39,1L442.39,38.28L437.51,38.28L425.64,19.36C423.06,15.357 420.723,11.203 418.64,6.92L418.47,6.92C418.75,11.62 418.86,16.1 418.86,22.3L418.86,38.28L414.33,38.28Z" style="fill:rgb(20,41,76);fill-rule:nonzero;"/>
            <path d="M443.39,39.28L437,39.28L424.8,19.89C422.74,16.62 421.07,13.78 419.7,11.21C419.83,14.51 419.88,18 419.88,22.35L419.88,39.28L413.33,39.28L413.33,0L420.15,0L432.42,19.33C434.17,22.09 435.71,24.72 437.07,27.33C436.89,23.86 436.84,20.44 436.84,16.65L436.84,0L443.39,0L443.39,39.28ZM438.06,37.28L441.39,37.28L441.39,2L438.84,2L438.84,16.6C438.84,22.03 438.94,26.71 439.39,31.83L439.45,32.51L437.81,33.32L437.38,32.39C435.425,28.25 433.204,24.242 430.73,20.39L419.05,2L415.33,2L415.33,37.28L417.88,37.28L417.88,22.35C417.88,16.12 417.77,11.69 417.49,7.03L417.49,6.27L419.23,5.68L419.61,6.49C421.66,10.742 423.971,14.863 426.53,18.83L438.06,37.28Z" style="fill:rgb(20,41,76);fill-rule:nonzero;"/>
            <path d="M418.24,842.59C420.857,844.153 423.842,844.992 426.89,845.02C431.82,845.02 434.71,842.42 434.71,838.66C434.71,835.17 432.71,833.18 427.71,831.25C421.61,829.09 417.84,825.94 417.84,820.68C417.84,814.87 422.66,810.56 429.92,810.56C432.787,810.46 435.633,811.09 438.19,812.39L436.85,816.31C434.671,815.14 432.234,814.532 429.76,814.54C424.66,814.54 422.76,817.54 422.76,820.13C422.76,823.61 425.03,825.33 430.19,827.32C436.51,829.75 439.72,832.79 439.72,838.27C439.72,844.02 435.45,849 426.64,849C423.03,849 419.1,848 417.1,846.62L418.24,842.59Z" style="fill:rgb(20,41,76);fill-rule:nonzero;"/>
            <path d="M426.56,850C422.87,850 418.72,849 416.47,847.45L415.85,847.04L417.66,841.04L418.77,841.72C421.228,843.184 424.03,843.971 426.89,844C431.1,844 433.71,842 433.71,838.64C433.71,836.09 432.71,834.21 427.31,832.16C420.24,829.66 416.8,825.9 416.8,820.66C416.8,814.11 422.18,809.54 429.88,809.54C432.923,809.445 435.94,810.134 438.64,811.54L439.36,811.94L437.36,817.78L436.36,817.21C434.326,816.115 432.05,815.548 429.74,815.56C425.28,815.56 423.74,818.03 423.74,820.15C423.74,822.9 425.39,824.42 430.53,826.41C437.66,829.15 440.7,832.71 440.7,838.29C440.64,843.68 437,850 426.56,850ZM418.2,846.17C420.819,847.384 423.673,848.009 426.56,848C433.9,848 438.64,844.18 438.64,838.27C438.64,833.52 436.15,830.71 429.75,828.27C424.64,826.27 421.68,824.33 421.68,820.15C421.68,816.98 424.19,813.56 429.68,813.56C431.922,813.553 434.141,814.019 436.19,814.93L436.88,812.93C434.667,811.996 432.281,811.546 429.88,811.61C423.36,811.61 418.8,815.36 418.8,820.73C418.8,825.08 421.72,828.14 428,830.36C432.64,832.14 435.71,834.23 435.71,838.71C435.71,843.19 432.25,846.07 426.89,846.07C424.088,846.035 421.332,845.35 418.84,844.07L418.2,846.17Z" style="fill:rgb(20,41,76);fill-rule:nonzero;"/>
            <path d="M6.34,412.78L9.88,426.39C10.66,429.39 11.38,432.14 11.88,434.91L12.05,434.91C12.66,432.2 13.54,429.32 14.43,426.44L18.81,412.78L22.91,412.78L27.07,426.17C28.07,429.38 28.85,432.17 29.46,434.91L29.62,434.91C30.149,431.979 30.833,429.078 31.67,426.22L35.5,412.78L40.32,412.78L31.67,439.55L27.24,439.55L23.14,426.78C22.193,423.89 21.396,420.952 20.75,417.98L20.64,417.98C20.001,420.975 19.186,423.93 18.2,426.83L13.88,439.55L9.44,439.55L1.35,412.78L6.34,412.78Z" style="fill:rgb(20,41,76);fill-rule:nonzero;"/>
            <path d="M32.4,440.55L26.51,440.55L22.18,427.08C21.63,425.33 21.18,423.71 20.7,422.08C20.2,423.9 19.7,425.59 19.15,427.17L14.59,440.58L8.7,440.58L0,411.78L7.11,411.78L10.85,426.14C11.28,427.78 11.69,429.35 12.05,430.89C12.5,429.31 12.99,427.72 13.48,426.15L18.08,411.78L23.65,411.78L28,425.87C28.54,427.62 29,429.23 29.42,430.74C29.81,429.11 30.25,427.5 30.68,425.95L34.68,411.78L41.68,411.78L32.4,440.55ZM27.97,438.55L30.97,438.55L38.97,413.77L36.26,413.77L32.64,426.5C31.813,429.317 31.145,432.178 30.64,435.07L30.5,435.91L28.66,435.91L28.48,435.13C27.89,432.5 27.14,429.75 26.12,426.46L22.18,413.78L19.54,413.78L15.38,426.78C14.52,429.58 13.62,432.48 13.02,435.16L12.85,435.94L11,435.94L10.86,435.11C10.37,432.4 9.65,429.65 8.86,426.73L5.56,413.78L2.69,413.78L10.18,438.56L13.18,438.56L17.27,426.51C18.242,423.649 19.047,420.734 19.68,417.78L19.85,416.99L21.58,416.99L21.75,417.78C22.388,420.718 23.175,423.622 24.11,426.48L27.97,438.55Z" style="fill:rgb(20,41,76);fill-rule:nonzero;"/>
            <path d="M720.75,113.7L735.45,99.1L737.88,101.53L736,114.45C735.62,117.099 735.058,119.718 734.32,122.29L734.39,122.29C736.202,120.1 738.131,118.01 740.17,116.03L746.33,109.92L748.42,112.02L733.72,126.62L731.47,124.37L733.47,111.48C733.86,108.747 734.425,106.041 735.16,103.38L735.06,103.38C733.34,105.38 731.62,107.15 729.18,109.58L722.9,115.82L720.75,113.7Z" style="fill:rgb(20,41,76);fill-rule:nonzero;"/>
            <path d="M753.37,132.63L746.67,125.92L741.37,131.19L748.83,138.66L747.24,140.24L737.56,130.54L752.26,115.94L761.56,125.26L760,126.84L752.92,119.75L748.28,124.36L754.97,131.07L753.37,132.63Z" style="fill:rgb(20,41,76);fill-rule:nonzero;"/>
            <path d="M113.37,138.3L98.74,123.63L101.18,121.21L114.12,123.13C116.777,123.5 119.404,124.061 121.98,124.81L121.98,124.74C119.789,122.929 117.696,121.003 115.71,118.97L109.59,112.83L111.69,110.74L126.33,125.41L124.07,127.65L111.15,125.65C108.409,125.268 105.696,124.704 103.03,123.96L103.03,124.06C105.03,125.79 106.81,127.5 109.24,129.93L115.5,136.2L113.37,138.3Z" style="fill:rgb(20,41,76);fill-rule:nonzero;"/>
            <path d="M133.08,118.73L114.08,108.42L116.44,106.08L125.89,111.46C128.23,112.78 130.52,114.15 132.24,115.25L132.29,115.25C130.955,113.152 129.73,110.985 128.62,108.76L123.52,99L125.86,96.68L135.39,102.03C137.528,103.199 139.604,104.477 141.61,105.86C140.37,103.86 139.23,101.78 137.94,99.41L132.84,89.75L135.12,87.48L144.91,107L142.57,109.32L132.77,103.85C130.727,102.753 128.757,101.527 126.87,100.18L126.81,100.18C128.084,102.147 129.236,104.191 130.26,106.3L135.41,116.38L133.08,118.73Z" style="fill:rgb(20,41,76);fill-rule:nonzero;"/>
            <path d="M148.47,729.36C147.869,727.502 146.841,725.81 145.47,724.42C143.19,722.14 140.84,721.82 139.36,723.3C137.88,724.78 138.12,726.36 139.68,729.45C141.68,733.11 142.13,736.09 140.06,738.15C137.77,740.42 133.85,739.88 130.5,736.53C129.157,735.259 128.103,733.714 127.41,732L129.57,731.08C130.133,732.583 131.013,733.948 132.15,735.08C134.5,737.43 136.59,737.14 137.59,736.14C138.97,734.77 138.59,733.05 137.01,729.89C135.01,726.02 134.77,723.34 136.93,721.2C139.09,719.06 143.13,718.97 147.19,723.04C148.726,724.537 149.908,726.358 150.65,728.37L148.47,729.36Z" style="fill:rgb(20,41,76);fill-rule:nonzero;"/>
            <path d="M135.08,711.32L124.74,730.32L122.39,728L127.79,718.56C129.11,716.23 130.48,713.95 131.59,712.23L131.54,712.23C129.436,713.564 127.263,714.786 125.03,715.89L115.32,720.95L113,718.52L118.37,709.02C119.538,706.883 120.82,704.81 122.21,702.81L122.15,702.81C120.15,704.05 118.06,705.19 115.69,706.47L106,711.51L103.73,709.23L123.31,699.52L125.63,701.85L120.15,711.63C119.054,713.672 117.824,715.639 116.47,717.52L116.53,717.57C118.497,716.301 120.541,715.155 122.65,714.14L132.75,709L135.08,711.32Z" style="fill:rgb(20,41,76);fill-rule:nonzero;"/>
            <path d="M718.06,139.49L694.74,162.76L697.59,165.6L720.91,142.33L718.06,139.49Z" style="fill:rgb(20,41,76);fill-rule:nonzero;"/>
            <path d="M169.17,687.1L145.85,710.36L148.7,713.2L172.02,689.93L169.17,687.1Z" style="fill:rgb(20,41,76);fill-rule:nonzero;"/>
            <path d="M692.52,682.04L689.68,684.88L713,708.14L715.84,705.31L692.52,682.04Z" style="fill:rgb(20,41,76);fill-rule:nonzero;"/>
            <path d="M140.79,137.28L164.11,160.54L166.95,157.7L143.63,134.44L140.79,137.28Z" style="fill:rgb(20,41,76);fill-rule:nonzero;"/>
            <path d="M743.26,704.11C741.383,704.707 739.67,705.735 738.26,707.11C735.98,709.37 735.66,711.72 737.14,713.2C738.62,714.68 740.21,714.44 743.31,712.88C746.98,710.93 749.96,710.43 752.02,712.5C754.3,714.79 753.77,718.7 750.4,722.04C749.128,723.384 747.579,724.435 745.86,725.12L745,723C746.501,722.442 747.865,721.569 749,720.44C751.32,718.07 751,716 750,715C748.64,713.63 746.91,714 743.74,715.59C739.86,717.54 737.18,717.82 735.03,715.66C732.88,713.5 732.79,709.48 736.87,705.43C738.373,703.894 740.201,702.715 742.22,701.98L743.26,704.11Z" style="fill:rgb(20,41,76);fill-rule:nonzero;"/>
            <path d="M725.91,730.44L732.63,723.76L727.35,718.48L719.86,725.92L718.28,724.33L728,714.67L742.64,729.34L733.3,738.61L731.71,737L738.82,729.94L734.19,725.3L727.47,732L725.91,730.44Z" style="fill:rgb(20,41,76);fill-rule:nonzero;"/>
        </g>
    </g>
</svg>
