<?xml version="1.0" encoding="UTF-8" standalone="no"?>
<svg
   viewBox="0 0 24 24"
   aria-hidden="true"
   class="r-1cvl2hr r-4qtqp9 r-yyyyoo r-1yjpyg1 r-1xvli5t r-dnmrzs r-bnwqim r-1plcrui r-lrvibr"
   data-testid="verificationBadge"
   version="1.1"
   id="svg965"
   sodipodi:docname="twitter_blue_check.svg"
   inkscape:version="1.1.2 (0a00cf5339, 2022-02-04)"
   xmlns:inkscape="http://www.inkscape.org/namespaces/inkscape"
   xmlns:sodipodi="http://sodipodi.sourceforge.net/DTD/sodipodi-0.dtd"
   xmlns="http://www.w3.org/2000/svg"
   xmlns:svg="http://www.w3.org/2000/svg">
  <defs
     id="defs969" />
  <sodipodi:namedview
     id="namedview967"
     pagecolor="#ffffff"
     bordercolor="#666666"
     borderopacity="1.0"
     inkscape:pageshadow="2"
     inkscape:pageopacity="0.0"
     inkscape:pagecheckerboard="0"
     showgrid="false"
     inkscape:zoom="3.2151262"
     inkscape:cx="-98.440927"
     inkscape:cy="37.790119"
     inkscape:window-width="2182"
     inkscape:window-height="1440"
     inkscape:window-x="0"
     inkscape:window-y="0"
     inkscape:window-maximized="1"
     inkscape:current-layer="svg965" />
  <g
     id="g963"
     style="fill:#1d9bf0;fill-opacity:1">
    <path
       d="M22.25 12c0-1.43-.88-2.67-2.19-3.34.46-1.39.2-2.9-.81-3.91s-2.52-1.27-3.91-.81c-.66-1.31-1.91-2.19-3.34-2.19s-2.67.88-3.33 2.19c-1.4-.46-2.91-.2-3.92.81s-1.26 2.52-.8 3.91c-1.31.67-2.2 1.91-2.2 3.34s.89 2.67 2.2 3.34c-.46 1.39-.21 2.9.8 3.91s2.52 1.26 3.91.81c.67 1.31 1.91 2.19 3.34 2.19s2.68-.88 3.34-2.19c1.39.45 2.9.2 3.91-.81s1.27-2.52.81-3.91c1.31-.67 2.19-1.91 2.19-3.34zm-11.71 4.2L6.8 12.46l1.41-1.42 2.26 2.26 4.8-5.23 1.47 1.36-6.2 6.77z"
       id="path961"
       style="fill:#1d9bf0;fill-opacity:1" />
  </g>
</svg>
