<svg id="Layer_1" enable-background="new 0 0 511.712 511.712" height="512" viewBox="0 0 511.712 511.712" width="512" xmlns="http://www.w3.org/2000/svg"><g><path d="m507.301 245.25-66.151-66.152v-93.554c0-8.284-6.716-15-15-15h-93.554l-66.151-66.151c-5.857-5.857-15.355-5.857-21.213 0l-66.152 66.151h-93.553c-8.284 0-15 6.716-15 15v93.554l-66.152 66.152c-5.81 5.585-5.81 15.628 0 21.213l66.152 66.151v93.554c0 8.284 6.716 15 15 15h93.553l66.152 66.151c5.857 5.859 15.355 5.858 21.213 0l66.152-66.151h93.553c8.284 0 15-6.716 15-15v-93.553l66.151-66.152c5.859-5.858 5.859-15.356 0-21.213zm-91.757 70.545c-2.813 2.812-4.394 6.628-4.394 10.606v84.766h-84.766c-3.979 0-7.794 1.58-10.606 4.394l-59.94 59.939-59.939-59.938c-2.813-2.813-6.628-4.394-10.606-4.394h-84.766v-84.767c0-3.979-1.581-7.794-4.394-10.606l-59.938-59.938 59.938-59.938c2.813-2.812 4.394-6.628 4.394-10.606v-84.767h84.766c3.978 0 7.793-1.58 10.606-4.394l59.939-59.938 59.938 59.938c2.812 2.813 6.628 4.394 10.606 4.394h84.767v84.766c0 3.979 1.58 7.794 4.394 10.606l59.938 59.939z"/><path d="m312.837 228.856c-8.284 0-15 6.716-15 15v61c-.755 19.871-29.235 19.864-30 .012v-61.012c-.737-19.881-29.269-19.866-30 0v61.002.01c-.771 19.868-29.252 19.844-30-.012v-61.066c.07-12.579-14.912-19.629-24.557-11.561l-40 33.066c-4.781 3.952-11.883 3.648-15.507-.662l-10.455-12.432c-5.333-6.341-14.793-7.157-21.135-1.825-6.34 5.332-7.157 14.794-1.825 21.134l10.455 12.432c14.245 16.94 40.077 18.948 57.582 4.475l15.442-12.765v29.204c-.308 38.621 46.844 59.351 75 33.51 28.386 25.815 75.14 5.229 75-33.51v-61c0-8.284-6.715-15-15-15z"/><path d="m365.837 185.856c-8.284 0-15 6.716-15 15v134c.738 19.881 29.269 19.866 30 0v-134c0-8.284-6.715-15-15-15z"/><path d="m192.016 187.987 13.382 9.732c13.721 9.98 32.159 9.979 45.88 0l4.56-3.316 4.56 3.316c13.721 9.979 32.158 9.98 45.881 0l13.382-9.732c6.7-4.872 8.182-14.254 3.309-20.953-4.871-6.7-14.252-8.183-20.953-3.309l-13.382 9.732c-3.315 2.409-7.273 2.411-10.591 0l-13.383-9.732c-5.259-3.826-12.384-3.826-17.645 0l-13.383 9.732c-3.315 2.412-7.273 2.41-10.59 0l-13.382-9.732c-6.699-4.873-16.081-3.392-20.953 3.309-4.873 6.699-3.392 16.081 3.308 20.953z"/><path d="m256.838 145.856c8.284 0 15-6.716 15-15v-10c-.738-19.881-29.269-19.866-30 0v10c0 8.284 6.716 15 15 15z"/></g></svg>