<svg id="Layer_1" enable-background="new 0 0 511.9 511.9" height="512" viewBox="0 0 511.9 511.9" width="512" xmlns="http://www.w3.org/2000/svg"><g><path d="m371.951 340.908h-11v-160h8c19.881-.738 19.866-29.269 0-30h-8.39c-4.154-48.717-41.711-88.045-89.61-94.927v-41.076c-.738-19.881-29.269-19.866-30 0v41.076c-47.899 6.882-85.456 46.21-89.61 94.927h-8.39c-19.881.738-19.866 29.269 0 30h8v160h-11c-8.284 0-15 6.716-15 15v50c0 6.51 4.199 12.277 10.395 14.275l20.605 6.647v70.07c0 8.284 6.716 15 15 15h170.001c8.284 0 15-6.716 15-15v-70.069l20.605-6.647c6.196-1.999 10.395-7.765 10.395-14.275v-50c-.001-8.285-6.717-15.001-15.001-15.001zm-101.001-.189h-30v-62.887c0-13.597 5.16-25.103 15-33.618 9.84 8.515 15 20.02 15 33.618zm-15-255.814c38.308 0 69.979 28.877 74.441 66.003h-148.882c4.462-37.126 36.133-66.003 74.441-66.003zm75 96.003v159.811h-30v-62.887c0-25.51-12.173-48.256-33.399-62.406l-3.281-2.187c-5.038-3.358-11.602-3.358-16.64 0l-3.281 2.187c-21.226 14.15-33.399 36.896-33.399 62.406v62.887h-30v-159.811zm26.001 214.078-20.605 6.647c-6.196 1.999-10.395 7.765-10.395 14.275v65.992h-140.001v-65.992c0-6.51-4.199-12.277-10.395-14.275l-20.605-6.647v-24.078h202.001z"/><path d="m415.696 236.497c-16.097-11.689-33.695 10.771-18.514 23.605 7.708 5.76 7.541 18.157-.232 23.783-6.617 4.984-7.94 14.389-2.957 21.006 5.013 6.656 14.449 7.91 21.006 2.957 23.359-17.051 23.851-53.9.697-71.351z"/><path d="m453.012 192.075c-6.421-5.234-15.869-4.273-21.104 2.147-5.234 6.421-4.273 15.87 2.147 21.104 35.675 27.846 35.524 85.771-.314 113.412-6.45 5.199-7.463 14.642-2.264 21.092 5.224 6.48 14.686 7.438 21.092 2.264 50.569-38.997 50.776-120.738.443-160.019z"/><path d="m114.95 283.885c-7.774-5.626-7.939-18.023-.232-23.783 6.519-5.112 7.659-14.541 2.546-21.06-5.112-6.519-14.542-7.658-21.06-2.546-23.157 17.457-22.658 54.3.697 71.351 6.556 4.955 15.994 3.699 21.006-2.957 4.984-6.615 3.66-16.02-2.957-21.005z"/><path d="m78.16 328.738c-35.842-27.644-35.986-85.568-.314-113.412 6.42-5.234 7.382-14.683 2.147-21.104s-14.684-7.38-21.104-2.147c-50.336 39.296-50.125 121.014.445 160.019 6.404 5.175 15.867 4.215 21.09-2.264 5.199-6.449 4.186-15.892-2.264-21.092z"/></g></svg>