<svg id="Layer_1" enable-background="new 0 0 511.7 511.7" height="512" viewBox="0 0 511.7 511.7" width="512" xmlns="http://www.w3.org/2000/svg"><path d="m465.854 39.453c-5.286 0-10.362.916-15.077 2.598-4.905-56.089-84.962-56.046-89.846.001-24.153-9.169-52.651 6.342-58.558 30.789-15.213-6.389-34.831-2.645-46.519 8.355-11.685-11-31.309-14.744-46.519-8.355-5.905-24.447-34.409-39.957-58.558-30.789-4.904-56.089-84.962-56.049-89.846-.001-28.413-10.676-60.66 11.91-60.077 42.402v231.245c0 21.821 11.122 42.124 29 54.08v126.922c0 8.284 6.716 15 15 15h182c8.284 0 15-6.716 15-15v-126.923c5.3-3.544 10.001-7.827 14-12.661 3.999 4.834 8.699 9.116 14 12.661v126.923c0 8.284 6.716 15 15 15h182c8.284 0 15-6.716 15-15v-126.923c17.878-11.955 29-32.258 29-54.079v-231.245c0-24.813-20.187-45-45-45zm0 30c8.271 0 15 6.729 15 15v51.79c-8.936-4.149-20.029-5.614-30-3.732 0 0 0-47.681 0-48.058 0-8.271 6.729-15 15-15zm-419.999 0c8.271 0 15 6.729 15 15v48.058c-9.749-1.915-20.884-.446-30 3.732v-51.79c-.001-8.271 6.728-15 15-15zm166 412.247h-152v-30h152zm28.999-166.002c0 13.542-7.98 26.009-20.331 31.76-5.288 2.462-8.668 7.766-8.668 13.598v60.644h-152v-60.644c0-5.833-3.381-11.136-8.668-13.598-12.351-5.751-20.332-18.218-20.332-31.761v-132.997c0-11.58 9.421-21 21-21s21 9.42 21 21v55.067c0 8.865 7.541 15 15.995 15 25.917 0 47.003 21.085 47.003 47.003v32.927c0 8.284 6.716 15 15 15s15-6.716 15-15v-32.927c0-37.678-27.201-69.123-62.998-75.727v-41.343c0-12.49-4.52-23.939-12.001-32.815v-105.184c0-8.271 6.729-15 15-15s15 6.729 15 15l-.001 146c0 8.284 6.716 15 15 15s15-6.716 15-15c0 0 0-106.239.001-106.258.76-19.838 29.238-19.875 30 .011v106.111c0 8.284 6.716 15 15 15s15-6.716 15-15v-75.873c.76-19.852 29.244-19.865 30 .01 0-.002 0 200.996 0 200.996zm30-200.998c.756-19.871 29.239-19.865 30-.01v75.873c0 8.284 6.716 15 15 15s15-6.716 15-15v-106.111c0-8.271 6.729-15 15-15 8.265 0 14.994 6.724 15 14.999v106.249c0 8.284 6.716 15 15 15s15-6.716 15-15v-146c0-8.271 6.729-15 15-15s15 6.729 15 15v105.184c-7.481 8.876-12.001 20.325-12.001 32.815v41.343c-35.796 6.604-62.998 38.048-62.998 75.727v32.927c0 8.284 6.716 15 15 15s15-6.716 15-15v-32.926c0-25.917 21.085-47.003 47.003-47.003 8.539 0 15.995-6.058 15.995-15v-55.067c1.023-27.768 40.937-27.859 42.001 0v74.153 58.844c0 13.543-7.98 26.01-20.332 31.761-5.288 2.462-8.668 7.766-8.668 13.598v60.644h-152v-60.644c0-5.833-3.381-11.136-8.668-13.598-12.351-5.75-20.332-18.217-20.331-31.76v-200.998zm181 367h-152v-30h152z"/></svg>