<svg id="Layer_1" enable-background="new 0 0 512.007 512.007" height="512" viewBox="0 0 512.007 512.007" width="512" xmlns="http://www.w3.org/2000/svg"><path d="m473.003 422.007h-4s-.299-48.344-.825-49.873c-12.43-87.439-53.705-133.849-134.252-173.052-27.238-13.209-40.443-36.962-55.734-64.466-2.329-4.19-4.722-8.49-7.188-12.783v-18.092c5.982-1.008 11.818-2.998 17.282-5.992 7.266-3.979 9.93-13.096 5.949-20.361-3.979-7.267-13.098-9.93-20.361-5.949-18.911 10.464-41.83-7.408-36.016-28.284 1.722-6.425 5.842-11.794 11.603-15.12 16.849-10.579 2.568-35.282-15-25.98-12.7 7.332-21.784 19.172-25.58 33.337-3.795 14.164-1.848 28.96 5.485 41.659 6.13 10.618 15.452 18.717 26.638 23.303v21.479c-2.467 4.294-4.861 8.595-7.19 12.785-15.289 27.503-28.494 51.255-55.733 64.465-80.475 39.142-121.848 85.625-134.251 173.045-.527 1.531-.827 49.878-.827 49.878h-4c-8.284 0-15 6.716-15 15v60c0 8.284 6.716 15 15 15h434c8.284 0 15-6.716 15-15v-60c0-8.283-6.715-14.999-15-14.999zm-281.833-195.933c32.829-15.92 49.699-42.726 64.833-69.656 15.134 26.931 32.006 53.737 64.833 69.656 59.06 28.643 101.558 63.342 115.354 135.932h-360.376c13.796-72.616 56.287-107.283 115.356-135.932zm-118.167 165.932h366v30.001h-366zm385 90.001h-404v-30h404z"/></svg>