<svg id="Layer_1" enable-background="new 0 0 512 512" height="512" viewBox="0 0 512 512" width="512" xmlns="http://www.w3.org/2000/svg"><path d="m497 40h-45v-25c0-8.284-6.716-15-15-15h-121.001c-24.507 0-46.305 11.818-59.999 30.052-13.694-18.234-35.492-30.052-60-30.052h-121c-8.284 0-15 6.716-15 15v25h-45c-8.284 0-15 6.716-15 15v361c0 8.284 6.716 15 15 15h47v66c0 5.089 2.58 9.83 6.853 12.595 4.282 2.77 9.668 3.168 14.297 1.087l172.85-77.687 172.851 77.687c4.628 2.081 10.017 1.683 14.297-1.087 4.272-2.765 6.852-7.506 6.852-12.595v-66h47c8.284 0 15-6.716 15-15v-361c0-8.284-6.716-15-15-15zm-181.001-10h106.001v251h-106.001c-16.871 0-32.456 5.603-44.999 15.041v-221.041c0-24.813 20.187-45 44.999-45zm106.001 281v30h-148.43c6.19-17.461 22.873-30 42.429-30zm-226-281c24.813 0 45 20.187 45 45v221.041c-12.544-9.438-28.129-15.041-45-15.041h-106v-251zm-106 281h106c19.557 0 36.239 12.539 42.43 30h-148.43zm2 120h95.258l-95.258 42.814zm328 42.814-95.258-42.814h95.258zm62-72.814h-452v-331h30v286c0 8.284 6.716 15 15 15h362c8.284 0 15-6.716 15-15v-286h30z"/></svg>