<svg id="Layer_1" enable-background="new 0 0 512 512" height="512" viewBox="0 0 512 512" width="512" xmlns="http://www.w3.org/2000/svg"><g><path d="m467 0h-422c-59.632 2.269-59.587 87.752 0 90h15v407c0 8.284 6.716 15 15 15h362c8.284 0 15-6.716 15-15v-407h15c59.632-2.269 59.586-87.752 0-90zm-45 30v30h-332v-30zm-377 30c-19.877-.756-19.862-29.251 0-30h15v30zm377 422h-332v-392h332zm45-422h-15v-30h15c19.877.756 19.862 29.251 0 30z"/><path d="m279.162 221.549 1.435 25.211c.256 4.495 2.517 8.638 6.159 11.283 3.642 2.647 8.28 3.517 12.634 2.371l24.421-6.427 24.42 6.427c8.815 2.568 18.508-4.454 18.793-13.654l1.435-25.211 13.658-21.239c2.436-3.786 3.041-8.467 1.649-12.748-1.391-4.282-4.632-7.713-8.827-9.345l-23.534-9.154-15.979-19.554c-5.649-7.271-17.581-7.27-23.23-.001l-15.979 19.555-23.534 9.154c-4.195 1.632-7.437 5.062-8.827 9.345-1.392 4.281-.786 8.962 1.649 12.748zm31.609-25.959c2.411-.938 4.539-2.484 6.177-4.487l6.862-8.397 6.861 8.396c1.638 2.004 3.766 3.55 6.177 4.488l10.106 3.932-5.865 9.121c-1.399 2.177-2.213 4.678-2.359 7.262l-.616 10.826-10.486-2.76c-2.502-.658-5.133-.658-7.635 0l-10.487 2.76-.616-10.826c-.146-2.584-.96-5.085-2.359-7.262l-5.865-9.121z"/><path d="m161.036 377.84c52.15 54.354 145.99 54.351 198.139 0 14.08-14.081 24.793-30.593 31.841-49.075 4.634-11.984-7.379-23.995-19.36-19.36-40.521 15.45-86.511 5.628-117.161-25.022-30.652-30.651-40.474-76.64-25.022-117.161 4.635-11.976-7.376-23.994-19.36-19.36-93.611 34.061-120.701 160.563-49.077 229.978zm21.213-176.926c3.426-3.426 7.034-6.598 10.813-9.509-4.47 41.561 9.828 83.8 40.219 114.189 30.39 30.39 72.629 44.69 114.189 40.219-2.911 3.779-6.083 7.387-9.509 10.813-107.098 99.245-254.914-48.729-155.712-155.712z"/></g></svg>