<svg id="Layer_1" enable-background="new 0 0 512 512" height="512" viewBox="0 0 512 512" width="512" xmlns="http://www.w3.org/2000/svg"><path d="m512 195.519c0-22.241-16.221-40.767-37.453-44.367 10.319-28.382-12.24-60.186-42.547-59.632 0-.001-88.644-.001-88.644-.001-.379-.422-.771-.832-1.165-1.239 2.792-1.344 5.514-2.71 8.08-4.097 55.848-29.599 23.963-96.795-26.284-84.675 0 0-122.666 32.869-122.7 32.878-14.328 3.837-27.947 8.244-40.174 16.877-25.326 17.72-42.377 46.786-44.758 77.674h-101.355c-8.284 0-15 6.716-15 15v163c0 8.284 6.716 15 15 15h125.6c37.422 43.48 78.488 37.6 129.778 37.581-14.425 33.202-16.496 87.338-16.4 133.791.01 4.644.276 9.313 3.389 13.119 2.832 3.462 7.143 5.509 11.616 5.509h81.225c4.446 0 8.808-2.15 11.64-5.66 3.153-3.907 3.358-8.173 3.365-12.968.096-46.453-1.975-100.589-16.4-133.791h39.187c30.043.53 52.558-30.706 42.76-59.001 31.293 1.284 54.728-31.443 43.46-60.578 21.394-3.463 37.78-22.064 37.78-44.42zm-202.404-89.081c8.494 0 15.404 6.91 15.404 15.404-.774 20.408-30.038 20.402-30.809 0 0-8.494 6.911-15.404 15.405-15.404zm0 216.602c-8.494 0-15.404-6.911-15.404-15.405.774-20.408 30.038-20.402 30.809 0-.001 8.493-6.911 15.405-15.405 15.405zm0-62.444c-8.494 0-15.404-6.91-15.404-15.404.774-20.408 30.038-20.402 30.809 0-.001 8.494-6.911 15.404-15.405 15.404zm0-62.442c-8.494 0-15.404-6.91-15.404-15.404.774-20.408 30.038-20.402 30.809 0-.001 8.494-6.911 15.404-15.405 15.404zm-149.504 100.02c-2.819-3.915-7.349-6.236-12.174-6.236h-117.918v-133h101c8.284 0 15-6.716 15-15-.547-41.042 22.336-71.023 62.502-80.427l123.249-33.024c8.13-2.183 14.899 2.638 17.142 8.275 2.927 7.356-1.77 15.021-12.886 21.028-7.956 4.3-41.496 18.639-45.652 20.938-27.144 12.148-35.014 49.612-14.406 71.567-15.837 16.702-15.474 45.376.727 61.675-16.505 16.609-16.501 45.838 0 62.442-13.251 13.198-16.482 36.681-6.847 53.106-42.4-1.001-80.465 8.257-109.737-31.344zm123.891 183.764c-.797-30.929 4.404-107.996 20.668-121.508 3.477-3.388 6.406-3.394 9.889 0 16.309 13.631 21.448 90.596 20.668 121.508zm183.017-271.419-71 .418c-19.881.738-19.866 29.269 0 30h39.457c17.088 4.412 14.351 29.155-3.457 29.581h-36.339c-7.533 0-13.897 5.587-14.873 13.057-.977 7.47 3.739 14.505 11.02 16.439 16.855 4.838 13.706 29.129-3.808 29.505h-38.638c9.636-16.428 6.404-39.907-6.847-53.106 16.505-16.609 16.501-45.838 0-62.442 16.205-16.303 16.559-44.977.727-61.675 7.362-8.123 11.861-18.985 11.75-30.777h77.008c17.362.364 20.678 24.337 4.084 29.418h-40.084c-19.881.738-19.866 29.269 0 30l71-.418c19.877.756 19.862 29.251 0 30z"/></svg>